{"bars": 4, "bpm": 123, "card": {"allow_chromatic_mediant": true, "allow_tritone_sub": false, "bass_feel": "two", "bpm_range": [104, 126], "bridge_bass_feel": "walk", "bridge_function_pool": ["i7", "iv7", "V7"], "bridge_len_weights": [[2, 0.5], [4, 0.5]], "bridge_major_function_pool": ["III7", "VI7", "II7", "V7maj", "V9", "iii7", "vi7", "ii7maj"], "centers": ["Dm"], "clap_drag_ms": [0.0, 0.0], "elaboration_density": 0.15, "function_pool": ["i7", "iv7", "V7"], "ghost_kicks": false, "has_bridge": true, "has_strings": true, "hat_vels": [38, 52], "keys_pattern": "stride", "keys_reattack": "sustain", "kick_per_bar": [1, 1], "loop_len_weights": [[2, 0.35], [4, 0.65]], "major_centers": ["F", "Ab", "Eb", "C"], "major_function_pool": ["I6", "I6add9", "ii7maj", "iii7", "IV6", "iv6", "V7maj", "VI7", "vi7", "#idim7", "II7"], "max_changes_per_bar": 2, "name": "ballroom", "p_bass_approach": 0.0, "p_bass_glide": 0.0, "p_bass_stab": 0.0, "p_drumless": 0.0, "p_hat_roll": 0.0, "p_keys_anticipation": 0.12, "p_kicker": 0.0, "p_major_center": 1.0, "p_perc_bed": 0.0, "p_phrygian_vamp": 0.0, "p_tonic_avoid": 0.05, "p_transpose_event": 0.0, "p_turnaround": 0.0, "pad_enters_section": 2, "provenance": [["bpm_range", "cited: ISTD slow foxtrot 112-120 inside band; ballroom-dna 7"], ["swing_band", "designed: dance-band charts straighter than combo 0.70-0.76; ballroom-dna 1"], ["snap_rush_ms", "designed: brush drag behind the beat; ballroom-dna 2 contested direction"], ["major_function_pool", "cited: added-sixth tonic, Martin 2023; ballroom-dna 6"], ["section_pattern", "cited: 32-bar AABA dominance; ballroom-dna 6"], ["texture", "designed: warm ceiling, big room, no lo-fi"]], "register_hi": 76, "register_lo": 48, "rootless": false, "section_pattern": "AABA", "snap_rush_ms": [6.0, 14.0], "swing_band": [0.58, 0.68], "target_len_s": [150, 210], "templates": ["close4", "close5", "drop2", "quartal", "us_triad", "sus43", "add9"], "texture": [["lpf_hz", 14000.0], ["room_size", 0.85], ["verb_mix", 0.24], ["glue_db", 3.0]], "timing_sigma_ms": 3.5, "transpose_semitones": 0, "vel_jitter": 0.05, "voicing_density": 0.5}, "engine": "0.5.0", "index": 0, "key": "Eb", "loop": ["ii7maj", "V7maj", "I6", "vi7"], "parts_a": {"bass": [{"drum": null, "dur": 1920, "glide": false, "micro_ms": 2.2625, "pitch": 29, "tick": 0, "vel": 82}, {"drum": null, "dur": 1920, "glide": false, "micro_ms": -1.0556, "pitch": 36, "tick": 1920, "vel": 73}, {"drum": null, "dur": 1920, "glide": false, "micro_ms": 2.4141, "pitch": 34, "tick": 3840, "vel": 74}, {"drum": null, "dur": 1920, "glide": false, "micro_ms": -1.5122, "pitch": 29, "tick": 5760, "vel": 73}, {"drum": null, "dur": 1920, "glide": false, "micro_ms": -1.8303, "pitch": 39, "tick": 7680, "vel": 83}, {"drum": null, "dur": 1920, "glide": false, "micro_ms": -4.2305, "pitch": 34, "tick": 9600, "vel": 69}, {"drum": null, "dur": 1920, "glide": false, "micro_ms": -8.0762, "pitch": 36, "tick": 11520, "vel": 77}, {"drum": null, "dur": 1920, "glide": false, "micro_ms": 1.8273, "pitch": 31, "tick": 13440, "vel": 71}], "hat": [{"drum": "chick", "dur": 120, "glide": false, "micro_ms": 1.6242, "pitch": null, "tick": 960, "vel": 38}, {"drum": "chick", "dur": 120, "glide": false, "micro_ms": -2.5863, "pitch": null, "tick": 2880, "vel": 40}, {"drum": "chick", "dur": 120, "glide": false, "micro_ms": -2.5275, "pitch": null, "tick": 4800, "vel": 51}, {"drum": "chick", "dur": 120, "glide": false, "micro_ms": -6.0305, "pitch": null, "tick": 6720, "vel": 46}, {"drum": "chick", "dur": 120, "glide": false, "micro_ms": 0.0184, "pitch": null, "tick": 8640, "vel": 46}, {"drum": "chick", "dur": 120, "glide": false, "micro_ms": 2.0737, "pitch": null, "tick": 10560, "vel": 48}, {"drum": "chick", "dur": 120, "glide": false, "micro_ms": 2.3292, "pitch": null, "tick": 12480, "vel": 41}, {"drum": "chick", "dur": 120, "glide": false, "micro_ms": -4.9338, "pitch": null, "tick": 14400, "vel": 42}], "keys": [{"drum": null, "dur": 960, "glide": false, "micro_ms": -3.3204, "pitch": 41, "tick": 0, "vel": 80}, {"drum": null, "dur": 720, "glide": false, "micro_ms": -3.1296, "pitch": 53, "tick": 960, "vel": 70}, {"drum": null, "dur": 720, "glide": false, "micro_ms": -6.5846, "pitch": 56, "tick": 960, "vel": 66}, {"drum": null, "dur": 720, "glide": false, "micro_ms": 0.7529, "pitch": 63, "tick": 960, "vel": 70}, {"drum": null, "dur": 720, "glide": false, "micro_ms": 1.3396, "pitch": 72, "tick": 960, "vel": 64}, {"drum": null, "dur": 960, "glide": false, "micro_ms": -0.3171, "pitch": 48, "tick": 1920, "vel": 81}, {"drum": null, "dur": 720, "glide": false, "micro_ms": 3.5794, "pitch": 53, "tick": 2880, "vel": 64}, {"drum": null, "dur": 720, "glide": false, "micro_ms": -2.378, "pitch": 56, "tick": 2880, "vel": 67}, {"drum": null, "dur": 720, "glide": false, "micro_ms": 0.6153, "pitch": 63, "tick": 2880, "vel": 71}, {"drum": null, "dur": 720, "glide": false, "micro_ms": 0.0603, "pitch": 72, "tick": 2880, "vel": 65}, {"drum": null, "dur": 960, "glide": false, "micro_ms": 2.4185, "pitch": 46, "tick": 3840, "vel": 86}, {"drum": null, "dur": 720, "glide": false, "micro_ms": 62.9975, "pitch": 50, "tick": 4320, "vel": 61}, {"drum": null, "dur": 720, "glide": false, "micro_ms": 66.8165, "pitch": 56, "tick": 4320, "vel": 65}, {"drum": null, "dur": 720, "glide": false, "micro_ms": 54.5571, "pitch": 65, "tick": 4320, "vel": 66}, {"drum": null, "dur": 720, "glide": false, "micro_ms": 68.2631, "pitch": 70, "tick": 4320, "vel": 71}, {"drum": null, "dur": 960, "glide": false, "micro_ms": -7.1359, "pitch": 41, "tick": 5760, "vel": 83}, {"drum": null, "dur": 720, "glide": false, "micro_ms": -3.9884, "pitch": 50, "tick": 6720, "vel": 65}, {"drum": null, "dur": 720, "glide": false, "micro_ms": -4.1694, "pitch": 56, "tick": 6720, "vel": 66}, {"drum": null, "dur": 720, "glide": false, "micro_ms": -0.407, "pitch": 65, "tick": 6720, "vel": 69}, {"drum": null, "dur": 720, "glide": false, "micro_ms": -4.1727, "pitch": 70, "tick": 6720, "vel": 58}, {"drum": null, "dur": 960, "glide": false, "micro_ms": 3.052, "pitch": 51, "tick": 7680, "vel": 83}, {"drum": null, "dur": 720, "glide": false, "micro_ms": 0.5857, "pitch": 51, "tick": 8640, "vel": 60}, {"drum": null, "dur": 720, "glide": false, "micro_ms": 1.1481, "pitch": 55, "tick": 8640, "vel": 69}, {"drum": null, "dur": 720, "glide": false, "micro_ms": -5.3407, "pitch": 60, "tick": 8640, "vel": 70}, {"drum": null, "dur": 720, "glide": false, "micro_ms": -9.9807, "pitch": 70, "tick": 8640, "vel": 62}, {"drum": null, "dur": 960, "glide": false, "micro_ms": 2.3936, "pitch": 46, "tick": 9600, "vel": 79}, {"drum": null, "dur": 720, "glide": false, "micro_ms": 1.7425, "pitch": 51, "tick": 10560, "vel": 65}, {"drum": null, "dur": 720, "glide": false, "micro_ms": 2.9968, "pitch": 55, "tick": 10560, "vel": 61}, {"drum": null, "dur": 720, "glide": false, "micro_ms": 3.4257, "pitch": 60, "tick": 10560, "vel": 62}, {"drum": null, "dur": 720, "glide": false, "micro_ms": -4.5772, "pitch": 70, "tick": 10560, "vel": 68}, {"drum": null, "dur": 960, "glide": false, "micro_ms": 3.6294, "pitch": 48, "tick": 11520, "vel": 85}, {"drum": null, "dur": 720, "glide": false, "micro_ms": 4.2699, "pitch": 51, "tick": 12480, "vel": 67}, {"drum": null, "dur": 720, "glide": false, "micro_ms": 0.9508, "pitch": 58, "tick": 12480, "vel": 69}, {"drum": null, "dur": 720, "glide": false, "micro_ms": 4.5897, "pitch": 67, "tick": 12480, "vel": 66}, {"drum": null, "dur": 720, "glide": false, "micro_ms": 0.5267, "pitch": 72, "tick": 12480, "vel": 67}, {"drum": null, "dur": 960, "glide": false, "micro_ms": -0.4401, "pitch": 43, "tick": 13440, "vel": 81}, {"drum": null, "dur": 720, "glide": false, "micro_ms": 0.9474, "pitch": 51, "tick": 14400, "vel": 67}, {"drum": null, "dur": 720, "glide": false, "micro_ms": -0.5232, "pitch": 58, "tick": 14400, "vel": 68}, {"drum": null, "dur": 720, "glide": false, "micro_ms": 2.0122, "pitch": 67, "tick": 14400, "vel": 63}, {"drum": null, "dur": 720, "glide": false, "micro_ms": -2.1896, "pitch": 72, "tick": 14400, "vel": 68}], "kick": [{"drum": "feather", "dur": 120, "glide": false, "micro_ms": 1.6662, "pitch": null, "tick": 0, "vel": 29}, {"drum": "feather", "dur": 120, "glide": false, "micro_ms": 2.3749, "pitch": null, "tick": 960, "vel": 32}, {"drum": "feather", "dur": 120, "glide": false, "micro_ms": -1.7379, "pitch": null, "tick": 1920, "vel": 30}, {"drum": "feather", "dur": 120, "glide": false, "micro_ms": 5.0412, "pitch": null, "tick": 2880, "vel": 36}, {"drum": "feather", "dur": 120, "glide": false, "micro_ms": -1.725, "pitch": null, "tick": 3840, "vel": 32}, {"drum": "feather", "dur": 120, "glide": false, "micro_ms": 5.2599, "pitch": null, "tick": 4800, "vel": 43}, {"drum": "feather", "dur": 120, "glide": false, "micro_ms": -1.8917, "pitch": null, "tick": 5760, "vel": 29}, {"drum": "feather", "dur": 120, "glide": false, "micro_ms": 4.5895, "pitch": null, "tick": 6720, "vel": 33}, {"drum": "feather", "dur": 120, "glide": false, "micro_ms": 0.9343, "pitch": null, "tick": 7680, "vel": 36}, {"drum": "feather", "dur": 120, "glide": false, "micro_ms": -0.785, "pitch": null, "tick": 8640, "vel": 30}, {"drum": "feather", "dur": 120, "glide": false, "micro_ms": -1.9949, "pitch": null, "tick": 9600, "vel": 32}, {"drum": "feather", "dur": 120, "glide": false, "micro_ms": -8.6876, "pitch": null, "tick": 10560, "vel": 36}, {"drum": "feather", "dur": 120, "glide": false, "micro_ms": -0.4645, "pitch": null, "tick": 11520, "vel": 28}, {"drum": "feather", "dur": 120, "glide": false, "micro_ms": 0.3749, "pitch": null, "tick": 12480, "vel": 28}, {"drum": "feather", "dur": 120, "glide": false, "micro_ms": 0.4228, "pitch": null, "tick": 13440, "vel": 31}, {"drum": "feather", "dur": 120, "glide": false, "micro_ms": -2.4928, "pitch": null, "tick": 14400, "vel": 32}], "pad": [{"drum": null, "dur": 3840, "glide": false, "micro_ms": -2.4323, "pitch": 68, "tick": 0, "vel": 54}, {"drum": null, "dur": 3840, "glide": false, "micro_ms": -1.9121, "pitch": 75, "tick": 0, "vel": 55}, {"drum": null, "dur": 3840, "glide": false, "micro_ms": -1.1785, "pitch": 84, "tick": 0, "vel": 49}, {"drum": null, "dur": 3840, "glide": false, "micro_ms": -2.6114, "pitch": 68, "tick": 3840, "vel": 57}, {"drum": null, "dur": 3840, "glide": false, "micro_ms": 1.9997, "pitch": 77, "tick": 3840, "vel": 51}, {"drum": null, "dur": 3840, "glide": false, "micro_ms": -1.1392, "pitch": 82, "tick": 3840, "vel": 58}, {"drum": null, "dur": 3840, "glide": false, "micro_ms": -0.1208, "pitch": 67, "tick": 7680, "vel": 53}, {"drum": null, "dur": 3840, "glide": false, "micro_ms": 6.2886, "pitch": 72, "tick": 7680, "vel": 54}, {"drum": null, "dur": 3840, "glide": false, "micro_ms": 6.0124, "pitch": 82, "tick": 7680, "vel": 51}, {"drum": null, "dur": 3840, "glide": false, "micro_ms": 3.3669, "pitch": 70, "tick": 11520, "vel": 51}, {"drum": null, "dur": 3840, "glide": false, "micro_ms": -1.8147, "pitch": 79, "tick": 11520, "vel": 58}, {"drum": null, "dur": 3840, "glide": false, "micro_ms": -3.3361, "pitch": 84, "tick": 11520, "vel": 55}], "perc": [], "snare": [{"drum": "brush_swirl", "dur": 120, "glide": false, "micro_ms": 8.2377, "pitch": null, "tick": 0, "vel": 36}, {"drum": "brush_tap", "dur": 120, "glide": false, "micro_ms": 11.0781, "pitch": null, "tick": 960, "vel": 57}, {"drum": "brush_swirl", "dur": 120, "glide": false, "micro_ms": 4.1307, "pitch": null, "tick": 1920, "vel": 33}, {"drum": "brush_tap", "dur": 120, "glide": false, "micro_ms": 6.823, "pitch": null, "tick": 2880, "vel": 63}, {"drum": "brush_swirl", "dur": 120, "glide": false, "micro_ms": -1.0239, "pitch": null, "tick": 3840, "vel": 44}, {"drum": "brush_tap", "dur": 120, "glide": false, "micro_ms": 10.9184, "pitch": null, "tick": 4800, "vel": 59}, {"drum": "brush_swirl", "dur": 120, "glide": false, "micro_ms": -2.1312, "pitch": null, "tick": 5760, "vel": 36}, {"drum": "brush_tap", "dur": 120, "glide": false, "micro_ms": 13.7593, "pitch": null, "tick": 6720, "vel": 62}, {"drum": "brush_swirl", "dur": 120, "glide": false, "micro_ms": 3.1203, "pitch": null, "tick": 7680, "vel": 35}, {"drum": "brush_tap", "dur": 120, "glide": false, "micro_ms": 12.7241, "pitch": null, "tick": 8640, "vel": 71}, {"drum": "brush_swirl", "dur": 120, "glide": false, "micro_ms": -0.0687, "pitch": null, "tick": 9600, "vel": 36}, {"drum": "brush_tap", "dur": 120, "glide": false, "micro_ms": 7.084, "pitch": null, "tick": 10560, "vel": 63}, {"drum": "brush_swirl", "dur": 120, "glide": false, "micro_ms": 1.63, "pitch": null, "tick": 11520, "vel": 35}, {"drum": "brush_tap", "dur": 120, "glide": false, "micro_ms": 11.2678, "pitch": null, "tick": 12480, "vel": 61}, {"drum": "brush_swirl", "dur": 120, "glide": false, "micro_ms": 1.1711, "pitch": null, "tick": 13440, "vel": 44}, {"drum": "brush_tap", "dur": 120, "glide": false, "micro_ms": 11.1181, "pitch": null, "tick": 14400, "vel": 65}], "sub": []}, "parts_b": {"bass": [{"drum": null, "dur": 1920, "glide": false, "micro_ms": 2.2625, "pitch": 29, "tick": 0, "vel": 82}, {"drum": null, "dur": 1920, "glide": false, "micro_ms": -1.0556, "pitch": 36, "tick": 1920, "vel": 73}, {"drum": null, "dur": 1920, "glide": false, "micro_ms": 2.4141, "pitch": 34, "tick": 3840, "vel": 74}, {"drum": null, "dur": 1920, "glide": false, "micro_ms": -1.5122, "pitch": 29, "tick": 5760, "vel": 73}, {"drum": null, "dur": 1920, "glide": false, "micro_ms": -1.8303, "pitch": 39, "tick": 7680, "vel": 83}, {"drum": null, "dur": 1920, "glide": false, "micro_ms": -4.2305, "pitch": 34, "tick": 9600, "vel": 69}, {"drum": null, "dur": 1920, "glide": false, "micro_ms": -8.0762, "pitch": 36, "tick": 11520, "vel": 77}, {"drum": null, "dur": 1920, "glide": false, "micro_ms": 1.8273, "pitch": 31, "tick": 13440, "vel": 71}], "hat": [{"drum": "chick", "dur": 120, "glide": false, "micro_ms": 1.6242, "pitch": null, "tick": 960, "vel": 42}, {"drum": "chick", "dur": 120, "glide": false, "micro_ms": -2.5863, "pitch": null, "tick": 2880, "vel": 52}, {"drum": "chick", "dur": 120, "glide": false, "micro_ms": -2.5275, "pitch": null, "tick": 4800, "vel": 47}, {"drum": "chick", "dur": 120, "glide": false, "micro_ms": -6.0305, "pitch": null, "tick": 6720, "vel": 37}, {"drum": "chick", "dur": 120, "glide": false, "micro_ms": 0.0184, "pitch": null, "tick": 8640, "vel": 49}, {"drum": "chick", "dur": 120, "glide": false, "micro_ms": 2.0737, "pitch": null, "tick": 10560, "vel": 45}, {"drum": "chick", "dur": 120, "glide": false, "micro_ms": 2.3292, "pitch": null, "tick": 12480, "vel": 43}, {"drum": "chick", "dur": 120, "glide": false, "micro_ms": -4.9338, "pitch": null, "tick": 14400, "vel": 47}], "keys": [{"drum": null, "dur": 960, "glide": false, "micro_ms": -3.3204, "pitch": 41, "tick": 0, "vel": 80}, {"drum": null, "dur": 720, "glide": false, "micro_ms": -3.1296, "pitch": 53, "tick": 960, "vel": 70}, {"drum": null, "dur": 720, "glide": false, "micro_ms": -6.5846, "pitch": 56, "tick": 960, "vel": 66}, {"drum": null, "dur": 720, "glide": false, "micro_ms": 0.7529, "pitch": 63, "tick": 960, "vel": 70}, {"drum": null, "dur": 720, "glide": false, "micro_ms": 1.3396, "pitch": 72, "tick": 960, "vel": 64}, {"drum": null, "dur": 960, "glide": false, "micro_ms": -0.3171, "pitch": 48, "tick": 1920, "vel": 81}, {"drum": null, "dur": 720, "glide": false, "micro_ms": 3.5794, "pitch": 53, "tick": 2880, "vel": 64}, {"drum": null, "dur": 720, "glide": false, "micro_ms": -2.378, "pitch": 56, "tick": 2880, "vel": 67}, {"drum": null, "dur": 720, "glide": false, "micro_ms": 0.6153, "pitch": 63, "tick": 2880, "vel": 71}, {"drum": null, "dur": 720, "glide": false, "micro_ms": 0.0603, "pitch": 72, "tick": 2880, "vel": 65}, {"drum": null, "dur": 960, "glide": false, "micro_ms": 2.4185, "pitch": 46, "tick": 3840, "vel": 86}, {"drum": null, "dur": 720, "glide": false, "micro_ms": 62.9975, "pitch": 50, "tick": 4320, "vel": 61}, {"drum": null, "dur": 720, "glide": false, "micro_ms": 66.8165, "pitch": 56, "tick": 4320, "vel": 65}, {"drum": null, "dur": 720, "glide": false, "micro_ms": 54.5571, "pitch": 65, "tick": 4320, "vel": 66}, {"drum": null, "dur": 720, "glide": false, "micro_ms": 68.2631, "pitch": 70, "tick": 4320, "vel": 71}, {"drum": null, "dur": 960, "glide": false, "micro_ms": -7.1359, "pitch": 41, "tick": 5760, "vel": 83}, {"drum": null, "dur": 720, "glide": false, "micro_ms": -3.9884, "pitch": 50, "tick": 6720, "vel": 65}, {"drum": null, "dur": 720, "glide": false, "micro_ms": -4.1694, "pitch": 56, "tick": 6720, "vel": 66}, {"drum": null, "dur": 720, "glide": false, "micro_ms": -0.407, "pitch": 65, "tick": 6720, "vel": 69}, {"drum": null, "dur": 720, "glide": false, "micro_ms": -4.1727, "pitch": 70, "tick": 6720, "vel": 58}, {"drum": null, "dur": 960, "glide": false, "micro_ms": 3.052, "pitch": 51, "tick": 7680, "vel": 83}, {"drum": null, "dur": 720, "glide": false, "micro_ms": 0.5857, "pitch": 51, "tick": 8640, "vel": 60}, {"drum": null, "dur": 720, "glide": false, "micro_ms": 1.1481, "pitch": 55, "tick": 8640, "vel": 69}, {"drum": null, "dur": 720, "glide": false, "micro_ms": -5.3407, "pitch": 60, "tick": 8640, "vel": 70}, {"drum": null, "dur": 720, "glide": false, "micro_ms": -9.9807, "pitch": 70, "tick": 8640, "vel": 62}, {"drum": null, "dur": 960, "glide": false, "micro_ms": 2.3936, "pitch": 46, "tick": 9600, "vel": 79}, {"drum": null, "dur": 720, "glide": false, "micro_ms": 1.7425, "pitch": 51, "tick": 10560, "vel": 65}, {"drum": null, "dur": 720, "glide": false, "micro_ms": 2.9968, "pitch": 55, "tick": 10560, "vel": 61}, {"drum": null, "dur": 720, "glide": false, "micro_ms": 3.4257, "pitch": 60, "tick": 10560, "vel": 62}, {"drum": null, "dur": 720, "glide": false, "micro_ms": -4.5772, "pitch": 70, "tick": 10560, "vel": 68}, {"drum": null, "dur": 960, "glide": false, "micro_ms": 3.6294, "pitch": 48, "tick": 11520, "vel": 85}, {"drum": null, "dur": 720, "glide": false, "micro_ms": 4.2699, "pitch": 51, "tick": 12480, "vel": 67}, {"drum": null, "dur": 720, "glide": false, "micro_ms": 0.9508, "pitch": 58, "tick": 12480, "vel": 69}, {"drum": null, "dur": 720, "glide": false, "micro_ms": 4.5897, "pitch": 67, "tick": 12480, "vel": 66}, {"drum": null, "dur": 720, "glide": false, "micro_ms": 0.5267, "pitch": 72, "tick": 12480, "vel": 67}, {"drum": null, "dur": 960, "glide": false, "micro_ms": -0.4401, "pitch": 43, "tick": 13440, "vel": 81}, {"drum": null, "dur": 720, "glide": false, "micro_ms": 0.9474, "pitch": 51, "tick": 14400, "vel": 67}, {"drum": null, "dur": 720, "glide": false, "micro_ms": -0.5232, "pitch": 58, "tick": 14400, "vel": 68}, {"drum": null, "dur": 720, "glide": false, "micro_ms": 2.0122, "pitch": 67, "tick": 14400, "vel": 63}, {"drum": null, "dur": 720, "glide": false, "micro_ms": -2.1896, "pitch": 72, "tick": 14400, "vel": 68}], "kick": [{"drum": "feather", "dur": 120, "glide": false, "micro_ms": 1.6662, "pitch": null, "tick": 0, "vel": 30}, {"drum": "feather", "dur": 120, "glide": false, "micro_ms": 2.3749, "pitch": null, "tick": 960, "vel": 32}, {"drum": "feather", "dur": 120, "glide": false, "micro_ms": -1.7379, "pitch": null, "tick": 1920, "vel": 31}, {"drum": "feather", "dur": 120, "glide": false, "micro_ms": 5.0412, "pitch": null, "tick": 2880, "vel": 36}, {"drum": "feather", "dur": 120, "glide": false, "micro_ms": -1.725, "pitch": null, "tick": 3840, "vel": 34}, {"drum": "feather", "dur": 120, "glide": false, "micro_ms": 5.2599, "pitch": null, "tick": 4800, "vel": 35}, {"drum": "feather", "dur": 120, "glide": false, "micro_ms": -1.8917, "pitch": null, "tick": 5760, "vel": 38}, {"drum": "feather", "dur": 120, "glide": false, "micro_ms": 4.5895, "pitch": null, "tick": 6720, "vel": 30}, {"drum": "feather", "dur": 120, "glide": false, "micro_ms": 0.9343, "pitch": null, "tick": 7680, "vel": 32}, {"drum": "feather", "dur": 120, "glide": false, "micro_ms": -0.785, "pitch": null, "tick": 8640, "vel": 29}, {"drum": "feather", "dur": 120, "glide": false, "micro_ms": -1.9949, "pitch": null, "tick": 9600, "vel": 26}, {"drum": "feather", "dur": 120, "glide": false, "micro_ms": -8.6876, "pitch": null, "tick": 10560, "vel": 34}, {"drum": "feather", "dur": 120, "glide": false, "micro_ms": -0.4645, "pitch": null, "tick": 11520, "vel": 28}, {"drum": "feather", "dur": 120, "glide": false, "micro_ms": 0.3749, "pitch": null, "tick": 12480, "vel": 32}, {"drum": "feather", "dur": 120, "glide": false, "micro_ms": 0.4228, "pitch": null, "tick": 13440, "vel": 30}, {"drum": "feather", "dur": 120, "glide": false, "micro_ms": -2.4928, "pitch": null, "tick": 14400, "vel": 35}], "pad": [{"drum": null, "dur": 3840, "glide": false, "micro_ms": -2.4323, "pitch": 68, "tick": 0, "vel": 54}, {"drum": null, "dur": 3840, "glide": false, "micro_ms": -1.9121, "pitch": 75, "tick": 0, "vel": 55}, {"drum": null, "dur": 3840, "glide": false, "micro_ms": -1.1785, "pitch": 84, "tick": 0, "vel": 49}, {"drum": null, "dur": 3840, "glide": false, "micro_ms": -2.6114, "pitch": 68, "tick": 3840, "vel": 57}, {"drum": null, "dur": 3840, "glide": false, "micro_ms": 1.9997, "pitch": 77, "tick": 3840, "vel": 51}, {"drum": null, "dur": 3840, "glide": false, "micro_ms": -1.1392, "pitch": 82, "tick": 3840, "vel": 58}, {"drum": null, "dur": 3840, "glide": false, "micro_ms": -0.1208, "pitch": 67, "tick": 7680, "vel": 53}, {"drum": null, "dur": 3840, "glide": false, "micro_ms": 6.2886, "pitch": 72, "tick": 7680, "vel": 54}, {"drum": null, "dur": 3840, "glide": false, "micro_ms": 6.0124, "pitch": 82, "tick": 7680, "vel": 51}, {"drum": null, "dur": 3840, "glide": false, "micro_ms": 3.3669, "pitch": 70, "tick": 11520, "vel": 51}, {"drum": null, "dur": 3840, "glide": false, "micro_ms": -1.8147, "pitch": 79, "tick": 11520, "vel": 58}, {"drum": null, "dur": 3840, "glide": false, "micro_ms": -3.3361, "pitch": 84, "tick": 11520, "vel": 55}], "perc": [], "snare": [{"drum": "brush_swirl", "dur": 120, "glide": false, "micro_ms": 8.2377, "pitch": null, "tick": 0, "vel": 43}, {"drum": "brush_tap", "dur": 120, "glide": false, "micro_ms": 11.0781, "pitch": null, "tick": 960, "vel": 71}, {"drum": "brush_swirl", "dur": 120, "glide": false, "micro_ms": 4.1307, "pitch": null, "tick": 1920, "vel": 40}, {"drum": "brush_tap", "dur": 120, "glide": false, "micro_ms": 6.823, "pitch": null, "tick": 2880, "vel": 72}, {"drum": "brush_swirl", "dur": 120, "glide": false, "micro_ms": -1.0239, "pitch": null, "tick": 3840, "vel": 39}, {"drum": "brush_tap", "dur": 120, "glide": false, "micro_ms": 10.9184, "pitch": null, "tick": 4800, "vel": 67}, {"drum": "brush_swirl", "dur": 120, "glide": false, "micro_ms": -2.1312, "pitch": null, "tick": 5760, "vel": 41}, {"drum": "brush_tap", "dur": 120, "glide": false, "micro_ms": 13.7593, "pitch": null, "tick": 6720, "vel": 74}, {"drum": "brush_swirl", "dur": 120, "glide": false, "micro_ms": 3.1203, "pitch": null, "tick": 7680, "vel": 38}, {"drum": "brush_tap", "dur": 120, "glide": false, "micro_ms": 12.7241, "pitch": null, "tick": 8640, "vel": 69}, {"drum": "brush_swirl", "dur": 120, "glide": false, "micro_ms": -0.0687, "pitch": null, "tick": 9600, "vel": 36}, {"drum": "brush_tap", "dur": 120, "glide": false, "micro_ms": 7.084, "pitch": null, "tick": 10560, "vel": 67}, {"drum": "brush_swirl", "dur": 120, "glide": false, "micro_ms": 1.63, "pitch": null, "tick": 11520, "vel": 38}, {"drum": "brush_tap", "dur": 120, "glide": false, "micro_ms": 11.2678, "pitch": null, "tick": 12480, "vel": 70}, {"drum": "brush_swirl", "dur": 120, "glide": false, "micro_ms": 1.1711, "pitch": null, "tick": 13440, "vel": 44}, {"drum": "brush_tap", "dur": 120, "glide": false, "micro_ms": 11.1181, "pitch": null, "tick": 14400, "vel": 76}], "sub": []}, "pocket": {"clap_ms": 0.0, "snap_ms": 9.42, "swing": 0.6286}, "score": 7.7, "section_b": {"loop": ["V7maj", "V9"], "parts_a": {"bass": [{"drum": null, "dur": 960, "glide": false, "micro_ms": -0.8159, "pitch": 34, "tick": 0, "vel": 70}, {"drum": null, "dur": 960, "glide": false, "micro_ms": 0.9567, "pitch": 29, "tick": 960, "vel": 73}, {"drum": null, "dur": 960, "glide": false, "micro_ms": -3.2584, "pitch": 38, "tick": 1920, "vel": 80}, {"drum": null, "dur": 960, "glide": false, "micro_ms": 1.7063, "pitch": 29, "tick": 2880, "vel": 69}, {"drum": null, "dur": 960, "glide": false, "micro_ms": 2.1882, "pitch": 38, "tick": 3840, "vel": 71}, {"drum": null, "dur": 960, "glide": false, "micro_ms": 0.772, "pitch": 29, "tick": 4800, "vel": 78}, {"drum": null, "dur": 960, "glide": false, "micro_ms": -10.3641, "pitch": 38, "tick": 5760, "vel": 73}, {"drum": null, "dur": 960, "glide": false, "micro_ms": -5.3045, "pitch": 33, "tick": 6720, "vel": 74}, {"drum": null, "dur": 960, "glide": false, "micro_ms": -5.5847, "pitch": 34, "tick": 7680, "vel": 78}, {"drum": null, "dur": 960, "glide": false, "micro_ms": 4.7827, "pitch": 29, "tick": 8640, "vel": 68}, {"drum": null, "dur": 960, "glide": false, "micro_ms": -1.3846, "pitch": 36, "tick": 9600, "vel": 80}, {"drum": null, "dur": 960, "glide": false, "micro_ms": -6.0177, "pitch": 29, "tick": 10560, "vel": 74}, {"drum": null, "dur": 960, "glide": false, "micro_ms": -2.4059, "pitch": 36, "tick": 11520, "vel": 71}, {"drum": null, "dur": 960, "glide": false, "micro_ms": -2.8967, "pitch": 29, "tick": 12480, "vel": 66}, {"drum": null, "dur": 960, "glide": false, "micro_ms": 0.5132, "pitch": 36, "tick": 13440, "vel": 81}, {"drum": null, "dur": 960, "glide": false, "micro_ms": -0.1832, "pitch": 33, "tick": 14400, "vel": 65}], "hat": [{"drum": "chick", "dur": 120, "glide": false, "micro_ms": -0.7277, "pitch": null, "tick": 960, "vel": 52}, {"drum": "chick", "dur": 120, "glide": false, "micro_ms": -4.0883, "pitch": null, "tick": 2880, "vel": 53}, {"drum": "chick", "dur": 120, "glide": false, "micro_ms": 2.9939, "pitch": null, "tick": 4800, "vel": 44}, {"drum": "chick", "dur": 120, "glide": false, "micro_ms": -0.6793, "pitch": null, "tick": 6720, "vel": 57}, {"drum": "chick", "dur": 120, "glide": false, "micro_ms": 0.7471, "pitch": null, "tick": 8640, "vel": 50}, {"drum": "chick", "dur": 120, "glide": false, "micro_ms": -2.4093, "pitch": null, "tick": 10560, "vel": 41}, {"drum": "chick", "dur": 120, "glide": false, "micro_ms": 3.38, "pitch": null, "tick": 12480, "vel": 43}, {"drum": "chick", "dur": 120, "glide": false, "micro_ms": -5.2234, "pitch": null, "tick": 14400, "vel": 44}], "keys": [{"drum": null, "dur": 960, "glide": false, "micro_ms": -3.5048, "pitch": 46, "tick": 0, "vel": 78}, {"drum": null, "dur": 720, "glide": false, "micro_ms": 1.229, "pitch": 50, "tick": 960, "vel": 64}, {"drum": null, "dur": 720, "glide": false, "micro_ms": -0.2034, "pitch": 56, "tick": 960, "vel": 67}, {"drum": null, "dur": 720, "glide": false, "micro_ms": 4.9883, "pitch": 66, "tick": 960, "vel": 64}, {"drum": null, "dur": 720, "glide": false, "micro_ms": 3.6248, "pitch": 70, "tick": 960, "vel": 65}, {"drum": null, "dur": 720, "glide": false, "micro_ms": -2.3991, "pitch": 73, "tick": 960, "vel": 63}, {"drum": null, "dur": 960, "glide": false, "micro_ms": -0.0439, "pitch": 41, "tick": 1920, "vel": 73}, {"drum": null, "dur": 720, "glide": false, "micro_ms": -2.9151, "pitch": 50, "tick": 2880, "vel": 76}, {"drum": null, "dur": 720, "glide": false, "micro_ms": -0.4296, "pitch": 56, "tick": 2880, "vel": 60}, {"drum": null, "dur": 720, "glide": false, "micro_ms": 2.1388, "pitch": 66, "tick": 2880, "vel": 65}, {"drum": null, "dur": 720, "glide": false, "micro_ms": 2.0629, "pitch": 70, "tick": 2880, "vel": 72}, {"drum": null, "dur": 720, "glide": false, "micro_ms": -3.6907, "pitch": 73, "tick": 2880, "vel": 68}, {"drum": null, "dur": 960, "glide": false, "micro_ms": 1.9644, "pitch": 46, "tick": 3840, "vel": 80}, {"drum": null, "dur": 720, "glide": false, "micro_ms": -1.1928, "pitch": 50, "tick": 4800, "vel": 68}, {"drum": null, "dur": 720, "glide": false, "micro_ms": 2.958, "pitch": 56, "tick": 4800, "vel": 63}, {"drum": null, "dur": 720, "glide": false, "micro_ms": 2.7268, "pitch": 66, "tick": 4800, "vel": 65}, {"drum": null, "dur": 720, "glide": false, "micro_ms": 0.7093, "pitch": 70, "tick": 4800, "vel": 66}, {"drum": null, "dur": 720, "glide": false, "micro_ms": -3.0298, "pitch": 73, "tick": 4800, "vel": 65}, {"drum": null, "dur": 960, "glide": false, "micro_ms": -3.8875, "pitch": 41, "tick": 5760, "vel": 83}, {"drum": null, "dur": 720, "glide": false, "micro_ms": 3.546, "pitch": 50, "tick": 6720, "vel": 69}, {"drum": null, "dur": 720, "glide": false, "micro_ms": -5.556, "pitch": 56, "tick": 6720, "vel": 60}, {"drum": null, "dur": 720, "glide": false, "micro_ms": 0.0943, "pitch": 66, "tick": 6720, "vel": 61}, {"drum": null, "dur": 720, "glide": false, "micro_ms": 2.6179, "pitch": 70, "tick": 6720, "vel": 67}, {"drum": null, "dur": 720, "glide": false, "micro_ms": -2.3632, "pitch": 73, "tick": 6720, "vel": 68}, {"drum": null, "dur": 960, "glide": false, "micro_ms": 4.4709, "pitch": 46, "tick": 7680, "vel": 80}, {"drum": null, "dur": 720, "glide": false, "micro_ms": -0.8772, "pitch": 50, "tick": 8640, "vel": 64}, {"drum": null, "dur": 720, "glide": false, "micro_ms": 7.469, "pitch": 56, "tick": 8640, "vel": 75}, {"drum": null, "dur": 720, "glide": false, "micro_ms": 5.5904, "pitch": 66, "tick": 8640, "vel": 72}, {"drum": null, "dur": 720, "glide": false, "micro_ms": 1.6493, "pitch": 70, "tick": 8640, "vel": 68}, {"drum": null, "dur": 720, "glide": false, "micro_ms": -0.2506, "pitch": 73, "tick": 8640, "vel": 66}, {"drum": null, "dur": 960, "glide": false, "micro_ms": -2.3389, "pitch": 41, "tick": 9600, "vel": 75}, {"drum": null, "dur": 720, "glide": false, "micro_ms": -1.9507, "pitch": 50, "tick": 10560, "vel": 64}, {"drum": null, "dur": 720, "glide": false, "micro_ms": 4.3356, "pitch": 56, "tick": 10560, "vel": 63}, {"drum": null, "dur": 720, "glide": false, "micro_ms": -1.5191, "pitch": 66, "tick": 10560, "vel": 71}, {"drum": null, "dur": 720, "glide": false, "micro_ms": 0.1662, "pitch": 70, "tick": 10560, "vel": 69}, {"drum": null, "dur": 720, "glide": false, "micro_ms": -3.3985, "pitch": 73, "tick": 10560, "vel": 66}, {"drum": null, "dur": 960, "glide": false, "micro_ms": -3.5405, "pitch": 46, "tick": 11520, "vel": 86}, {"drum": null, "dur": 720, "glide": false, "micro_ms": -4.8732, "pitch": 50, "tick": 12480, "vel": 66}, {"drum": null, "dur": 720, "glide": false, "micro_ms": -0.2044, "pitch": 56, "tick": 12480, "vel": 65}, {"drum": null, "dur": 720, "glide": false, "micro_ms": -5.4392, "pitch": 66, "tick": 12480, "vel": 60}, {"drum": null, "dur": 720, "glide": false, "micro_ms": -1.2823, "pitch": 70, "tick": 12480, "vel": 66}, {"drum": null, "dur": 720, "glide": false, "micro_ms": 4.7181, "pitch": 73, "tick": 12480, "vel": 63}, {"drum": null, "dur": 960, "glide": false, "micro_ms": -4.3868, "pitch": 41, "tick": 13440, "vel": 78}, {"drum": null, "dur": 720, "glide": false, "micro_ms": 2.03, "pitch": 50, "tick": 14400, "vel": 63}, {"drum": null, "dur": 720, "glide": false, "micro_ms": -0.2684, "pitch": 56, "tick": 14400, "vel": 66}, {"drum": null, "dur": 720, "glide": false, "micro_ms": -6.91, "pitch": 66, "tick": 14400, "vel": 74}, {"drum": null, "dur": 720, "glide": false, "micro_ms": -0.9031, "pitch": 70, "tick": 14400, "vel": 68}, {"drum": null, "dur": 720, "glide": false, "micro_ms": 0.519, "pitch": 73, "tick": 14400, "vel": 67}], "kick": [{"drum": "feather", "dur": 120, "glide": false, "micro_ms": -1.3582, "pitch": null, "tick": 0, "vel": 33}, {"drum": "feather", "dur": 120, "glide": false, "micro_ms": -1.0115, "pitch": null, "tick": 960, "vel": 33}, {"drum": "feather", "dur": 120, "glide": false, "micro_ms": -1.0369, "pitch": null, "tick": 1920, "vel": 35}, {"drum": "feather", "dur": 120, "glide": false, "micro_ms": 0.2266, "pitch": null, "tick": 2880, "vel": 30}, {"drum": "feather", "dur": 120, "glide": false, "micro_ms": -5.9543, "pitch": null, "tick": 3840, "vel": 34}, {"drum": "feather", "dur": 120, "glide": false, "micro_ms": -3.2199, "pitch": null, "tick": 4800, "vel": 30}, {"drum": "feather", "dur": 120, "glide": false, "micro_ms": -5.7936, "pitch": null, "tick": 5760, "vel": 35}, {"drum": "feather", "dur": 120, "glide": false, "micro_ms": -2.3539, "pitch": null, "tick": 6720, "vel": 39}, {"drum": "feather", "dur": 120, "glide": false, "micro_ms": 2.1933, "pitch": null, "tick": 7680, "vel": 29}, {"drum": "feather", "dur": 120, "glide": false, "micro_ms": -1.658, "pitch": null, "tick": 8640, "vel": 32}, {"drum": "feather", "dur": 120, "glide": false, "micro_ms": -1.1647, "pitch": null, "tick": 9600, "vel": 39}, {"drum": "feather", "dur": 120, "glide": false, "micro_ms": -4.0427, "pitch": null, "tick": 10560, "vel": 35}, {"drum": "feather", "dur": 120, "glide": false, "micro_ms": 6.2316, "pitch": null, "tick": 11520, "vel": 30}, {"drum": "feather", "dur": 120, "glide": false, "micro_ms": 6.9431, "pitch": null, "tick": 12480, "vel": 29}, {"drum": "feather", "dur": 120, "glide": false, "micro_ms": 1.2844, "pitch": null, "tick": 13440, "vel": 30}, {"drum": "feather", "dur": 120, "glide": false, "micro_ms": 0.5642, "pitch": null, "tick": 14400, "vel": 36}], "pad": [{"drum": null, "dur": 7680, "glide": false, "micro_ms": 1.3235, "pitch": 78, "tick": 0, "vel": 51}, {"drum": null, "dur": 7680, "glide": false, "micro_ms": 0.607, "pitch": 82, "tick": 0, "vel": 58}, {"drum": null, "dur": 7680, "glide": false, "micro_ms": 2.024, "pitch": 85, "tick": 0, "vel": 49}, {"drum": null, "dur": 7680, "glide": false, "micro_ms": -3.804, "pitch": 78, "tick": 7680, "vel": 57}, {"drum": null, "dur": 7680, "glide": false, "micro_ms": 7.1615, "pitch": 82, "tick": 7680, "vel": 53}, {"drum": null, "dur": 7680, "glide": false, "micro_ms": 1.9076, "pitch": 85, "tick": 7680, "vel": 58}], "perc": [], "snare": [{"drum": "brush_swirl", "dur": 120, "glide": false, "micro_ms": -4.7934, "pitch": null, "tick": 0, "vel": 41}, {"drum": "brush_tap", "dur": 120, "glide": false, "micro_ms": 8.1633, "pitch": null, "tick": 960, "vel": 59}, {"drum": "brush_swirl", "dur": 120, "glide": false, "micro_ms": 4.5811, "pitch": null, "tick": 1920, "vel": 41}, {"drum": "brush_tap", "dur": 120, "glide": false, "micro_ms": 11.1077, "pitch": null, "tick": 2880, "vel": 66}, {"drum": "brush_swirl", "dur": 120, "glide": false, "micro_ms": 0.4014, "pitch": null, "tick": 3840, "vel": 36}, {"drum": "brush_tap", "dur": 120, "glide": false, "micro_ms": -3.6551, "pitch": null, "tick": 4800, "vel": 61}, {"drum": "brush_swirl", "dur": 120, "glide": false, "micro_ms": -0.4021, "pitch": null, "tick": 5760, "vel": 37}, {"drum": "brush_tap", "dur": 120, "glide": false, "micro_ms": 1.989, "pitch": null, "tick": 6720, "vel": 70}, {"drum": "brush_swirl", "dur": 120, "glide": false, "micro_ms": 1.5676, "pitch": null, "tick": 7680, "vel": 44}, {"drum": "brush_tap", "dur": 120, "glide": false, "micro_ms": 10.5145, "pitch": null, "tick": 8640, "vel": 74}, {"drum": "brush_swirl", "dur": 120, "glide": false, "micro_ms": -3.6189, "pitch": null, "tick": 9600, "vel": 36}, {"drum": "brush_tap", "dur": 120, "glide": false, "micro_ms": 5.8408, "pitch": null, "tick": 10560, "vel": 61}, {"drum": "brush_swirl", "dur": 120, "glide": false, "micro_ms": -5.5748, "pitch": null, "tick": 11520, "vel": 37}, {"drum": "brush_tap", "dur": 120, "glide": false, "micro_ms": 7.1312, "pitch": null, "tick": 12480, "vel": 60}, {"drum": "brush_swirl", "dur": 120, "glide": false, "micro_ms": 2.3053, "pitch": null, "tick": 13440, "vel": 44}, {"drum": "brush_tap", "dur": 120, "glide": false, "micro_ms": 4.3531, "pitch": null, "tick": 14400, "vel": 59}], "sub": []}, "parts_b": {"bass": [{"drum": null, "dur": 960, "glide": false, "micro_ms": -0.8159, "pitch": 34, "tick": 0, "vel": 70}, {"drum": null, "dur": 960, "glide": false, "micro_ms": 0.9567, "pitch": 29, "tick": 960, "vel": 73}, {"drum": null, "dur": 960, "glide": false, "micro_ms": -3.2584, "pitch": 38, "tick": 1920, "vel": 80}, {"drum": null, "dur": 960, "glide": false, "micro_ms": 1.7063, "pitch": 29, "tick": 2880, "vel": 69}, {"drum": null, "dur": 960, "glide": false, "micro_ms": 2.1882, "pitch": 38, "tick": 3840, "vel": 71}, {"drum": null, "dur": 960, "glide": false, "micro_ms": 0.772, "pitch": 29, "tick": 4800, "vel": 78}, {"drum": null, "dur": 960, "glide": false, "micro_ms": -10.3641, "pitch": 38, "tick": 5760, "vel": 73}, {"drum": null, "dur": 960, "glide": false, "micro_ms": -5.3045, "pitch": 33, "tick": 6720, "vel": 74}, {"drum": null, "dur": 960, "glide": false, "micro_ms": -5.5847, "pitch": 34, "tick": 7680, "vel": 78}, {"drum": null, "dur": 960, "glide": false, "micro_ms": 4.7827, "pitch": 29, "tick": 8640, "vel": 68}, {"drum": null, "dur": 960, "glide": false, "micro_ms": -1.3846, "pitch": 36, "tick": 9600, "vel": 80}, {"drum": null, "dur": 960, "glide": false, "micro_ms": -6.0177, "pitch": 29, "tick": 10560, "vel": 74}, {"drum": null, "dur": 960, "glide": false, "micro_ms": -2.4059, "pitch": 36, "tick": 11520, "vel": 71}, {"drum": null, "dur": 960, "glide": false, "micro_ms": -2.8967, "pitch": 29, "tick": 12480, "vel": 66}, {"drum": null, "dur": 960, "glide": false, "micro_ms": 0.5132, "pitch": 36, "tick": 13440, "vel": 81}, {"drum": null, "dur": 960, "glide": false, "micro_ms": -0.1832, "pitch": 33, "tick": 14400, "vel": 65}], "hat": [{"drum": "chick", "dur": 120, "glide": false, "micro_ms": -0.7277, "pitch": null, "tick": 960, "vel": 40}, {"drum": "chick", "dur": 120, "glide": false, "micro_ms": -4.0883, "pitch": null, "tick": 2880, "vel": 41}, {"drum": "chick", "dur": 120, "glide": false, "micro_ms": 2.9939, "pitch": null, "tick": 4800, "vel": 53}, {"drum": "chick", "dur": 120, "glide": false, "micro_ms": -0.6793, "pitch": null, "tick": 6720, "vel": 50}, {"drum": "chick", "dur": 120, "glide": false, "micro_ms": 0.7471, "pitch": null, "tick": 8640, "vel": 52}, {"drum": "chick", "dur": 120, "glide": false, "micro_ms": -2.4093, "pitch": null, "tick": 10560, "vel": 40}, {"drum": "chick", "dur": 120, "glide": false, "micro_ms": 3.38, "pitch": null, "tick": 12480, "vel": 37}, {"drum": "chick", "dur": 120, "glide": false, "micro_ms": -5.2234, "pitch": null, "tick": 14400, "vel": 50}], "keys": [{"drum": null, "dur": 960, "glide": false, "micro_ms": -3.5048, "pitch": 46, "tick": 0, "vel": 78}, {"drum": null, "dur": 720, "glide": false, "micro_ms": 1.229, "pitch": 50, "tick": 960, "vel": 64}, {"drum": null, "dur": 720, "glide": false, "micro_ms": -0.2034, "pitch": 56, "tick": 960, "vel": 67}, {"drum": null, "dur": 720, "glide": false, "micro_ms": 4.9883, "pitch": 66, "tick": 960, "vel": 64}, {"drum": null, "dur": 720, "glide": false, "micro_ms": 3.6248, "pitch": 70, "tick": 960, "vel": 65}, {"drum": null, "dur": 720, "glide": false, "micro_ms": -2.3991, "pitch": 73, "tick": 960, "vel": 63}, {"drum": null, "dur": 960, "glide": false, "micro_ms": -0.0439, "pitch": 41, "tick": 1920, "vel": 73}, {"drum": null, "dur": 720, "glide": false, "micro_ms": -2.9151, "pitch": 50, "tick": 2880, "vel": 76}, {"drum": null, "dur": 720, "glide": false, "micro_ms": -0.4296, "pitch": 56, "tick": 2880, "vel": 60}, {"drum": null, "dur": 720, "glide": false, "micro_ms": 2.1388, "pitch": 66, "tick": 2880, "vel": 65}, {"drum": null, "dur": 720, "glide": false, "micro_ms": 2.0629, "pitch": 70, "tick": 2880, "vel": 72}, {"drum": null, "dur": 720, "glide": false, "micro_ms": -3.6907, "pitch": 73, "tick": 2880, "vel": 68}, {"drum": null, "dur": 960, "glide": false, "micro_ms": 1.9644, "pitch": 46, "tick": 3840, "vel": 80}, {"drum": null, "dur": 720, "glide": false, "micro_ms": -1.1928, "pitch": 50, "tick": 4800, "vel": 68}, {"drum": null, "dur": 720, "glide": false, "micro_ms": 2.958, "pitch": 56, "tick": 4800, "vel": 63}, {"drum": null, "dur": 720, "glide": false, "micro_ms": 2.7268, "pitch": 66, "tick": 4800, "vel": 65}, {"drum": null, "dur": 720, "glide": false, "micro_ms": 0.7093, "pitch": 70, "tick": 4800, "vel": 66}, {"drum": null, "dur": 720, "glide": false, "micro_ms": -3.0298, "pitch": 73, "tick": 4800, "vel": 65}, {"drum": null, "dur": 960, "glide": false, "micro_ms": -3.8875, "pitch": 41, "tick": 5760, "vel": 83}, {"drum": null, "dur": 720, "glide": false, "micro_ms": 3.546, "pitch": 50, "tick": 6720, "vel": 69}, {"drum": null, "dur": 720, "glide": false, "micro_ms": -5.556, "pitch": 56, "tick": 6720, "vel": 60}, {"drum": null, "dur": 720, "glide": false, "micro_ms": 0.0943, "pitch": 66, "tick": 6720, "vel": 61}, {"drum": null, "dur": 720, "glide": false, "micro_ms": 2.6179, "pitch": 70, "tick": 6720, "vel": 67}, {"drum": null, "dur": 720, "glide": false, "micro_ms": -2.3632, "pitch": 73, "tick": 6720, "vel": 68}, {"drum": null, "dur": 960, "glide": false, "micro_ms": 4.4709, "pitch": 46, "tick": 7680, "vel": 80}, {"drum": null, "dur": 720, "glide": false, "micro_ms": -0.8772, "pitch": 50, "tick": 8640, "vel": 64}, {"drum": null, "dur": 720, "glide": false, "micro_ms": 7.469, "pitch": 56, "tick": 8640, "vel": 75}, {"drum": null, "dur": 720, "glide": false, "micro_ms": 5.5904, "pitch": 66, "tick": 8640, "vel": 72}, {"drum": null, "dur": 720, "glide": false, "micro_ms": 1.6493, "pitch": 70, "tick": 8640, "vel": 68}, {"drum": null, "dur": 720, "glide": false, "micro_ms": -0.2506, "pitch": 73, "tick": 8640, "vel": 66}, {"drum": null, "dur": 960, "glide": false, "micro_ms": -2.3389, "pitch": 41, "tick": 9600, "vel": 75}, {"drum": null, "dur": 720, "glide": false, "micro_ms": -1.9507, "pitch": 50, "tick": 10560, "vel": 64}, {"drum": null, "dur": 720, "glide": false, "micro_ms": 4.3356, "pitch": 56, "tick": 10560, "vel": 63}, {"drum": null, "dur": 720, "glide": false, "micro_ms": -1.5191, "pitch": 66, "tick": 10560, "vel": 71}, {"drum": null, "dur": 720, "glide": false, "micro_ms": 0.1662, "pitch": 70, "tick": 10560, "vel": 69}, {"drum": null, "dur": 720, "glide": false, "micro_ms": -3.3985, "pitch": 73, "tick": 10560, "vel": 66}, {"drum": null, "dur": 960, "glide": false, "micro_ms": -3.5405, "pitch": 46, "tick": 11520, "vel": 86}, {"drum": null, "dur": 720, "glide": false, "micro_ms": -4.8732, "pitch": 50, "tick": 12480, "vel": 66}, {"drum": null, "dur": 720, "glide": false, "micro_ms": -0.2044, "pitch": 56, "tick": 12480, "vel": 65}, {"drum": null, "dur": 720, "glide": false, "micro_ms": -5.4392, "pitch": 66, "tick": 12480, "vel": 60}, {"drum": null, "dur": 720, "glide": false, "micro_ms": -1.2823, "pitch": 70, "tick": 12480, "vel": 66}, {"drum": null, "dur": 720, "glide": false, "micro_ms": 4.7181, "pitch": 73, "tick": 12480, "vel": 63}, {"drum": null, "dur": 960, "glide": false, "micro_ms": -4.3868, "pitch": 41, "tick": 13440, "vel": 78}, {"drum": null, "dur": 720, "glide": false, "micro_ms": 2.03, "pitch": 50, "tick": 14400, "vel": 63}, {"drum": null, "dur": 720, "glide": false, "micro_ms": -0.2684, "pitch": 56, "tick": 14400, "vel": 66}, {"drum": null, "dur": 720, "glide": false, "micro_ms": -6.91, "pitch": 66, "tick": 14400, "vel": 74}, {"drum": null, "dur": 720, "glide": false, "micro_ms": -0.9031, "pitch": 70, "tick": 14400, "vel": 68}, {"drum": null, "dur": 720, "glide": false, "micro_ms": 0.519, "pitch": 73, "tick": 14400, "vel": 67}], "kick": [{"drum": "feather", "dur": 120, "glide": false, "micro_ms": -1.3582, "pitch": null, "tick": 0, "vel": 30}, {"drum": "feather", "dur": 120, "glide": false, "micro_ms": -1.0115, "pitch": null, "tick": 960, "vel": 32}, {"drum": "feather", "dur": 120, "glide": false, "micro_ms": -1.0369, "pitch": null, "tick": 1920, "vel": 31}, {"drum": "feather", "dur": 120, "glide": false, "micro_ms": 0.2266, "pitch": null, "tick": 2880, "vel": 34}, {"drum": "feather", "dur": 120, "glide": false, "micro_ms": -5.9543, "pitch": null, "tick": 3840, "vel": 30}, {"drum": "feather", "dur": 120, "glide": false, "micro_ms": -3.2199, "pitch": null, "tick": 4800, "vel": 30}, {"drum": "feather", "dur": 120, "glide": false, "micro_ms": -5.7936, "pitch": null, "tick": 5760, "vel": 34}, {"drum": "feather", "dur": 120, "glide": false, "micro_ms": -2.3539, "pitch": null, "tick": 6720, "vel": 36}, {"drum": "feather", "dur": 120, "glide": false, "micro_ms": 2.1933, "pitch": null, "tick": 7680, "vel": 32}, {"drum": "feather", "dur": 120, "glide": false, "micro_ms": -1.658, "pitch": null, "tick": 8640, "vel": 30}, {"drum": "feather", "dur": 120, "glide": false, "micro_ms": -1.1647, "pitch": null, "tick": 9600, "vel": 31}, {"drum": "feather", "dur": 120, "glide": false, "micro_ms": -4.0427, "pitch": null, "tick": 10560, "vel": 32}, {"drum": "feather", "dur": 120, "glide": false, "micro_ms": 6.2316, "pitch": null, "tick": 11520, "vel": 33}, {"drum": "feather", "dur": 120, "glide": false, "micro_ms": 6.9431, "pitch": null, "tick": 12480, "vel": 36}, {"drum": "feather", "dur": 120, "glide": false, "micro_ms": 1.2844, "pitch": null, "tick": 13440, "vel": 35}, {"drum": "feather", "dur": 120, "glide": false, "micro_ms": 0.5642, "pitch": null, "tick": 14400, "vel": 37}], "pad": [{"drum": null, "dur": 7680, "glide": false, "micro_ms": 1.3235, "pitch": 78, "tick": 0, "vel": 51}, {"drum": null, "dur": 7680, "glide": false, "micro_ms": 0.607, "pitch": 82, "tick": 0, "vel": 58}, {"drum": null, "dur": 7680, "glide": false, "micro_ms": 2.024, "pitch": 85, "tick": 0, "vel": 49}, {"drum": null, "dur": 7680, "glide": false, "micro_ms": -3.804, "pitch": 78, "tick": 7680, "vel": 57}, {"drum": null, "dur": 7680, "glide": false, "micro_ms": 7.1615, "pitch": 82, "tick": 7680, "vel": 53}, {"drum": null, "dur": 7680, "glide": false, "micro_ms": 1.9076, "pitch": 85, "tick": 7680, "vel": 58}], "perc": [], "snare": [{"drum": "brush_swirl", "dur": 120, "glide": false, "micro_ms": -4.7934, "pitch": null, "tick": 0, "vel": 36}, {"drum": "brush_tap", "dur": 120, "glide": false, "micro_ms": 8.1633, "pitch": null, "tick": 960, "vel": 72}, {"drum": "brush_swirl", "dur": 120, "glide": false, "micro_ms": 4.5811, "pitch": null, "tick": 1920, "vel": 34}, {"drum": "brush_tap", "dur": 120, "glide": false, "micro_ms": 11.1077, "pitch": null, "tick": 2880, "vel": 66}, {"drum": "brush_swirl", "dur": 120, "glide": false, "micro_ms": 0.4014, "pitch": null, "tick": 3840, "vel": 43}, {"drum": "brush_tap", "dur": 120, "glide": false, "micro_ms": -3.6551, "pitch": null, "tick": 4800, "vel": 69}, {"drum": "brush_swirl", "dur": 120, "glide": false, "micro_ms": -0.4021, "pitch": null, "tick": 5760, "vel": 34}, {"drum": "brush_tap", "dur": 120, "glide": false, "micro_ms": 1.989, "pitch": null, "tick": 6720, "vel": 78}, {"drum": "brush_swirl", "dur": 120, "glide": false, "micro_ms": 1.5676, "pitch": null, "tick": 7680, "vel": 38}, {"drum": "brush_tap", "dur": 120, "glide": false, "micro_ms": 10.5145, "pitch": null, "tick": 8640, "vel": 77}, {"drum": "brush_swirl", "dur": 120, "glide": false, "micro_ms": -3.6189, "pitch": null, "tick": 9600, "vel": 45}, {"drum": "brush_tap", "dur": 120, "glide": false, "micro_ms": 5.8408, "pitch": null, "tick": 10560, "vel": 75}, {"drum": "brush_swirl", "dur": 120, "glide": false, "micro_ms": -5.5748, "pitch": null, "tick": 11520, "vel": 34}, {"drum": "brush_tap", "dur": 120, "glide": false, "micro_ms": 7.1312, "pitch": null, "tick": 12480, "vel": 66}, {"drum": "brush_swirl", "dur": 120, "glide": false, "micro_ms": 2.3053, "pitch": null, "tick": 13440, "vel": 37}, {"drum": "brush_tap", "dur": 120, "glide": false, "micro_ms": 4.3531, "pitch": null, "tick": 14400, "vel": 74}], "sub": []}, "segments": [{"dur": 16, "label": "V7", "start": 0, "symbol": "Bb7"}, {"dur": 16, "label": "V9", "start": 16, "symbol": "Bb9"}], "voicings": [["D3", "Ab3", "Gb4", "Bb4", "Db5"], ["D3", "Ab3", "Gb4", "Bb4", "Db5"]]}, "seed": 11, "segments": [{"dur": 8, "label": "ii7", "start": 0, "symbol": "Fm7"}, {"dur": 8, "label": "V7", "start": 8, "symbol": "Bb7"}, {"dur": 8, "label": "I6", "start": 16, "symbol": "Eb6"}, {"dur": 8, "label": "vi7", "start": 24, "symbol": "Cm7"}], "timeline": [{"cycles": 1, "kind": "intro", "muted": ["bass", "hat", "kick", "pad", "perc", "snare", "sub"], "transpose": 0}, {"cycles": 3, "kind": "a", "muted": ["pad"], "transpose": 0}, {"cycles": 3, "kind": "a", "muted": [], "transpose": 0}, {"cycles": 2, "kind": "b", "muted": [], "transpose": 0}, {"cycles": 2, "kind": "a", "muted": [], "transpose": 0}, {"cycles": 3, "kind": "a", "muted": [], "transpose": 0}, {"cycles": 3, "kind": "a", "muted": [], "transpose": 0}, {"cycles": 3, "kind": "b", "muted": [], "transpose": 0}, {"cycles": 2, "kind": "a", "muted": [], "transpose": 0}, {"cycles": 1, "kind": "a", "muted": [], "transpose": 0}, {"cycles": 1, "kind": "outro", "muted": ["bass", "hat", "kick", "pad", "perc", "snare", "sub"], "transpose": 0}], "voicings": [["F3", "Ab3", "Eb4", "C5"], ["D3", "Ab3", "F4", "Bb4"], ["Eb3", "G3", "C4", "Bb4"], ["Eb3", "Bb3", "G4", "C5"]]}