{"bars": 4, "bpm": 120, "card": {"allow_chromatic_mediant": true, "allow_tritone_sub": false, "bass_feel": "two", "bpm_range": [104, 126], "bridge_bass_feel": "walk", "bridge_function_pool": ["i7", "iv7", "V7"], "bridge_len_weights": [[2, 0.5], [4, 0.5]], "bridge_major_function_pool": ["III7", "VI7", "II7", "V7maj", "V9", "iii7", "vi7", "ii7maj"], "centers": ["Dm"], "clap_drag_ms": [0.0, 0.0], "elaboration_density": 0.15, "function_pool": ["i7", "iv7", "V7"], "ghost_kicks": false, "has_bridge": true, "has_strings": true, "hat_vels": [38, 52], "keys_pattern": "stride", "keys_reattack": "sustain", "kick_per_bar": [1, 1], "loop_len_weights": [[2, 0.35], [4, 0.65]], "major_centers": ["F", "Ab", "Eb", "C"], "major_function_pool": ["I6", "I6add9", "ii7maj", "iii7", "IV6", "iv6", "V7maj", "VI7", "vi7", "#idim7", "II7"], "max_changes_per_bar": 2, "name": "ballroom", "p_bass_approach": 0.0, "p_bass_glide": 0.0, "p_bass_stab": 0.0, "p_drumless": 0.0, "p_hat_roll": 0.0, "p_keys_anticipation": 0.12, "p_kicker": 0.0, "p_major_center": 1.0, "p_perc_bed": 0.0, "p_phrygian_vamp": 0.0, "p_tonic_avoid": 0.05, "p_transpose_event": 0.0, "p_turnaround": 0.0, "pad_enters_section": 2, "provenance": [["bpm_range", "cited: ISTD slow foxtrot 112-120 inside band; ballroom-dna 7"], ["swing_band", "designed: dance-band charts straighter than combo 0.70-0.76; ballroom-dna 1"], ["snap_rush_ms", "designed: brush drag behind the beat; ballroom-dna 2 contested direction"], ["major_function_pool", "cited: added-sixth tonic, Martin 2023; ballroom-dna 6"], ["section_pattern", "cited: 32-bar AABA dominance; ballroom-dna 6"], ["texture", "designed: warm ceiling, big room, no lo-fi"]], "register_hi": 76, "register_lo": 48, "rootless": false, "section_pattern": "AABA", "snap_rush_ms": [6.0, 14.0], "swing_band": [0.58, 0.68], "target_len_s": [150, 210], "templates": ["close4", "close5", "drop2", "quartal", "us_triad", "sus43", "add9"], "texture": [["lpf_hz", 14000.0], ["room_size", 0.85], ["verb_mix", 0.24], ["glue_db", 3.0]], "timing_sigma_ms": 3.5, "transpose_semitones": 0, "vel_jitter": 0.05, "voicing_density": 0.5}, "engine": "0.5.0", "index": 0, "key": "C", "loop": ["I6", "iv6"], "parts_a": {"bass": [{"drum": null, "dur": 1920, "glide": false, "micro_ms": 3.5207, "pitch": 36, "tick": 0, "vel": 80}, {"drum": null, "dur": 1920, "glide": false, "micro_ms": 2.8396, "pitch": 31, "tick": 1920, "vel": 74}, {"drum": null, "dur": 1920, "glide": false, "micro_ms": 0.0555, "pitch": 36, "tick": 3840, "vel": 77}, {"drum": null, "dur": 1920, "glide": false, "micro_ms": -5.2031, "pitch": 31, "tick": 5760, "vel": 78}, {"drum": null, "dur": 1920, "glide": false, "micro_ms": -3.3161, "pitch": 29, "tick": 7680, "vel": 74}, {"drum": null, "dur": 1920, "glide": false, "micro_ms": -0.5545, "pitch": 36, "tick": 9600, "vel": 79}, {"drum": null, "dur": 1920, "glide": false, "micro_ms": 3.8013, "pitch": 29, "tick": 11520, "vel": 80}, {"drum": null, "dur": 1920, "glide": false, "micro_ms": 0.8963, "pitch": 36, "tick": 13440, "vel": 77}], "hat": [{"drum": "chick", "dur": 120, "glide": false, "micro_ms": 5.0473, "pitch": null, "tick": 960, "vel": 49}, {"drum": "chick", "dur": 120, "glide": false, "micro_ms": 3.0798, "pitch": null, "tick": 2880, "vel": 53}, {"drum": "chick", "dur": 120, "glide": false, "micro_ms": -3.5743, "pitch": null, "tick": 4800, "vel": 49}, {"drum": "chick", "dur": 120, "glide": false, "micro_ms": 2.3143, "pitch": null, "tick": 6720, "vel": 44}, {"drum": "chick", "dur": 120, "glide": false, "micro_ms": 1.4151, "pitch": null, "tick": 8640, "vel": 42}, {"drum": "chick", "dur": 120, "glide": false, "micro_ms": 2.3463, "pitch": null, "tick": 10560, "vel": 42}, {"drum": "chick", "dur": 120, "glide": false, "micro_ms": 2.7519, "pitch": null, "tick": 12480, "vel": 52}, {"drum": "chick", "dur": 120, "glide": false, "micro_ms": -0.2386, "pitch": null, "tick": 14400, "vel": 49}], "keys": [{"drum": null, "dur": 960, "glide": false, "micro_ms": 3.5078, "pitch": 48, "tick": 0, "vel": 79}, {"drum": null, "dur": 720, "glide": false, "micro_ms": 3.7846, "pitch": 52, "tick": 960, "vel": 61}, {"drum": null, "dur": 720, "glide": false, "micro_ms": -3.3381, "pitch": 57, "tick": 960, "vel": 65}, {"drum": null, "dur": 720, "glide": false, "micro_ms": 5.7707, "pitch": 67, "tick": 960, "vel": 67}, {"drum": null, "dur": 720, "glide": false, "micro_ms": -3.6159, "pitch": 72, "tick": 960, "vel": 67}, {"drum": null, "dur": 960, "glide": false, "micro_ms": -6.7166, "pitch": 43, "tick": 1920, "vel": 81}, {"drum": null, "dur": 720, "glide": false, "micro_ms": -2.1731, "pitch": 52, "tick": 2880, "vel": 66}, {"drum": null, "dur": 720, "glide": false, "micro_ms": -1.9448, "pitch": 57, "tick": 2880, "vel": 69}, {"drum": null, "dur": 720, "glide": false, "micro_ms": 4.4615, "pitch": 67, "tick": 2880, "vel": 67}, {"drum": null, "dur": 720, "glide": false, "micro_ms": 3.9743, "pitch": 72, "tick": 2880, "vel": 70}, {"drum": null, "dur": 960, "glide": false, "micro_ms": 3.7937, "pitch": 48, "tick": 3840, "vel": 87}, {"drum": null, "dur": 720, "glide": false, "micro_ms": -0.8756, "pitch": 52, "tick": 4800, "vel": 64}, {"drum": null, "dur": 720, "glide": false, "micro_ms": 1.6254, "pitch": 57, "tick": 4800, "vel": 69}, {"drum": null, "dur": 720, "glide": false, "micro_ms": 4.4788, "pitch": 67, "tick": 4800, "vel": 66}, {"drum": null, "dur": 720, "glide": false, "micro_ms": -0.5063, "pitch": 72, "tick": 4800, "vel": 65}, {"drum": null, "dur": 960, "glide": false, "micro_ms": 4.5526, "pitch": 43, "tick": 5760, "vel": 86}, {"drum": null, "dur": 720, "glide": false, "micro_ms": 2.1764, "pitch": 52, "tick": 6720, "vel": 70}, {"drum": null, "dur": 720, "glide": false, "micro_ms": -0.1496, "pitch": 57, "tick": 6720, "vel": 72}, {"drum": null, "dur": 720, "glide": false, "micro_ms": 2.6714, "pitch": 67, "tick": 6720, "vel": 67}, {"drum": null, "dur": 720, "glide": false, "micro_ms": -8.4226, "pitch": 72, "tick": 6720, "vel": 65}, {"drum": null, "dur": 960, "glide": false, "micro_ms": -0.9859, "pitch": 41, "tick": 7680, "vel": 84}, {"drum": null, "dur": 720, "glide": false, "micro_ms": -0.7136, "pitch": 53, "tick": 8640, "vel": 65}, {"drum": null, "dur": 720, "glide": false, "micro_ms": 1.7697, "pitch": 56, "tick": 8640, "vel": 64}, {"drum": null, "dur": 720, "glide": false, "micro_ms": 6.0052, "pitch": 62, "tick": 8640, "vel": 68}, {"drum": null, "dur": 720, "glide": false, "micro_ms": 5.2012, "pitch": 72, "tick": 8640, "vel": 60}, {"drum": null, "dur": 960, "glide": false, "micro_ms": -1.8971, "pitch": 48, "tick": 9600, "vel": 78}, {"drum": null, "dur": 720, "glide": false, "micro_ms": 6.0452, "pitch": 53, "tick": 10560, "vel": 66}, {"drum": null, "dur": 720, "glide": false, "micro_ms": -4.6648, "pitch": 56, "tick": 10560, "vel": 63}, {"drum": null, "dur": 720, "glide": false, "micro_ms": 0.4034, "pitch": 62, "tick": 10560, "vel": 66}, {"drum": null, "dur": 720, "glide": false, "micro_ms": -1.1599, "pitch": 72, "tick": 10560, "vel": 64}, {"drum": null, "dur": 960, "glide": false, "micro_ms": -0.6091, "pitch": 41, "tick": 11520, "vel": 84}, {"drum": null, "dur": 720, "glide": false, "micro_ms": 3.2486, "pitch": 53, "tick": 12480, "vel": 62}, {"drum": null, "dur": 720, "glide": false, "micro_ms": 3.0324, "pitch": 56, "tick": 12480, "vel": 68}, {"drum": null, "dur": 720, "glide": false, "micro_ms": -2.43, "pitch": 62, "tick": 12480, "vel": 72}, {"drum": null, "dur": 720, "glide": false, "micro_ms": 1.778, "pitch": 72, "tick": 12480, "vel": 68}, {"drum": null, "dur": 960, "glide": false, "micro_ms": 1.8439, "pitch": 48, "tick": 13440, "vel": 81}, {"drum": null, "dur": 720, "glide": false, "micro_ms": 74.6365, "pitch": 53, "tick": 13920, "vel": 63}, {"drum": null, "dur": 720, "glide": false, "micro_ms": 71.3823, "pitch": 56, "tick": 13920, "vel": 68}, {"drum": null, "dur": 720, "glide": false, "micro_ms": 71.5048, "pitch": 62, "tick": 13920, "vel": 64}, {"drum": null, "dur": 720, "glide": false, "micro_ms": 71.9628, "pitch": 72, "tick": 13920, "vel": 63}], "kick": [{"drum": "feather", "dur": 120, "glide": false, "micro_ms": 1.8359, "pitch": null, "tick": 0, "vel": 35}, {"drum": "feather", "dur": 120, "glide": false, "micro_ms": -2.9081, "pitch": null, "tick": 960, "vel": 27}, {"drum": "feather", "dur": 120, "glide": false, "micro_ms": 1.3747, "pitch": null, "tick": 1920, "vel": 35}, {"drum": "feather", "dur": 120, "glide": false, "micro_ms": -2.1342, "pitch": null, "tick": 2880, "vel": 37}, {"drum": "feather", "dur": 120, "glide": false, "micro_ms": 8.1646, "pitch": null, "tick": 3840, "vel": 26}, {"drum": "feather", "dur": 120, "glide": false, "micro_ms": -1.8546, "pitch": null, "tick": 4800, "vel": 33}, {"drum": "feather", "dur": 120, "glide": false, "micro_ms": 0.1118, "pitch": null, "tick": 5760, "vel": 34}, {"drum": "feather", "dur": 120, "glide": false, "micro_ms": -3.1495, "pitch": null, "tick": 6720, "vel": 32}, {"drum": "feather", "dur": 120, "glide": false, "micro_ms": 3.4153, "pitch": null, "tick": 7680, "vel": 25}, {"drum": "feather", "dur": 120, "glide": false, "micro_ms": 1.496, "pitch": null, "tick": 8640, "vel": 29}, {"drum": "feather", "dur": 120, "glide": false, "micro_ms": 1.4815, "pitch": null, "tick": 9600, "vel": 32}, {"drum": "feather", "dur": 120, "glide": false, "micro_ms": 1.7571, "pitch": null, "tick": 10560, "vel": 35}, {"drum": "feather", "dur": 120, "glide": false, "micro_ms": 0.3638, "pitch": null, "tick": 11520, "vel": 35}, {"drum": "feather", "dur": 120, "glide": false, "micro_ms": -2.1121, "pitch": null, "tick": 12480, "vel": 32}, {"drum": "feather", "dur": 120, "glide": false, "micro_ms": -0.0647, "pitch": null, "tick": 13440, "vel": 31}, {"drum": "feather", "dur": 120, "glide": false, "micro_ms": -7.5061, "pitch": null, "tick": 14400, "vel": 31}], "pad": [{"drum": null, "dur": 7680, "glide": false, "micro_ms": 1.5428, "pitch": 69, "tick": 0, "vel": 50}, {"drum": null, "dur": 7680, "glide": false, "micro_ms": 0.9474, "pitch": 79, "tick": 0, "vel": 59}, {"drum": null, "dur": 7680, "glide": false, "micro_ms": -1.0251, "pitch": 84, "tick": 0, "vel": 55}, {"drum": null, "dur": 7680, "glide": false, "micro_ms": -1.0413, "pitch": 68, "tick": 7680, "vel": 58}, {"drum": null, "dur": 7680, "glide": false, "micro_ms": 4.779, "pitch": 74, "tick": 7680, "vel": 54}, {"drum": null, "dur": 7680, "glide": false, "micro_ms": 1.3469, "pitch": 84, "tick": 7680, "vel": 59}], "perc": [], "snare": [{"drum": "brush_swirl", "dur": 120, "glide": false, "micro_ms": -1.0045, "pitch": null, "tick": 0, "vel": 41}, {"drum": "brush_tap", "dur": 120, "glide": false, "micro_ms": 9.1799, "pitch": null, "tick": 960, "vel": 62}, {"drum": "brush_swirl", "dur": 120, "glide": false, "micro_ms": 8.8541, "pitch": null, "tick": 1920, "vel": 33}, {"drum": "brush_tap", "dur": 120, "glide": false, "micro_ms": 9.0285, "pitch": null, "tick": 2880, "vel": 77}, {"drum": "brush_swirl", "dur": 120, "glide": false, "micro_ms": 1.2191, "pitch": null, "tick": 3840, "vel": 47}, {"drum": "brush_tap", "dur": 120, "glide": false, "micro_ms": 10.1556, "pitch": null, "tick": 4800, "vel": 73}, {"drum": "brush_swirl", "dur": 120, "glide": false, "micro_ms": 2.0627, "pitch": null, "tick": 5760, "vel": 35}, {"drum": "brush_tap", "dur": 120, "glide": false, "micro_ms": 10.0447, "pitch": null, "tick": 6720, "vel": 62}, {"drum": "brush_swirl", "dur": 120, "glide": false, "micro_ms": 0.7259, "pitch": null, "tick": 7680, "vel": 36}, {"drum": "brush_tap", "dur": 120, "glide": false, "micro_ms": 5.7875, "pitch": null, "tick": 8640, "vel": 62}, {"drum": "brush_swirl", "dur": 120, "glide": false, "micro_ms": -0.7299, "pitch": null, "tick": 9600, "vel": 36}, {"drum": "brush_tap", "dur": 120, "glide": false, "micro_ms": 13.1129, "pitch": null, "tick": 10560, "vel": 56}, {"drum": "brush_swirl", "dur": 120, "glide": false, "micro_ms": -2.6533, "pitch": null, "tick": 11520, "vel": 41}, {"drum": "brush_tap", "dur": 120, "glide": false, "micro_ms": 9.4137, "pitch": null, "tick": 12480, "vel": 61}, {"drum": "brush_swirl", "dur": 120, "glide": false, "micro_ms": -0.6415, "pitch": null, "tick": 13440, "vel": 40}, {"drum": "brush_tap", "dur": 120, "glide": false, "micro_ms": 7.2254, "pitch": null, "tick": 14400, "vel": 63}], "sub": []}, "parts_b": {"bass": [{"drum": null, "dur": 1920, "glide": false, "micro_ms": 3.5207, "pitch": 36, "tick": 0, "vel": 80}, {"drum": null, "dur": 1920, "glide": false, "micro_ms": 2.8396, "pitch": 31, "tick": 1920, "vel": 74}, {"drum": null, "dur": 1920, "glide": false, "micro_ms": 0.0555, "pitch": 36, "tick": 3840, "vel": 77}, {"drum": null, "dur": 1920, "glide": false, "micro_ms": -5.2031, "pitch": 31, "tick": 5760, "vel": 78}, {"drum": null, "dur": 1920, "glide": false, "micro_ms": -3.3161, "pitch": 29, "tick": 7680, "vel": 74}, {"drum": null, "dur": 1920, "glide": false, "micro_ms": -0.5545, "pitch": 36, "tick": 9600, "vel": 79}, {"drum": null, "dur": 1920, "glide": false, "micro_ms": 3.8013, "pitch": 29, "tick": 11520, "vel": 80}, {"drum": null, "dur": 1920, "glide": false, "micro_ms": 0.8963, "pitch": 36, "tick": 13440, "vel": 77}], "hat": [{"drum": "chick", "dur": 120, "glide": false, "micro_ms": 5.0473, "pitch": null, "tick": 960, "vel": 48}, {"drum": "chick", "dur": 120, "glide": false, "micro_ms": 3.0798, "pitch": null, "tick": 2880, "vel": 44}, {"drum": "chick", "dur": 120, "glide": false, "micro_ms": -3.5743, "pitch": null, "tick": 4800, "vel": 53}, {"drum": "chick", "dur": 120, "glide": false, "micro_ms": 2.3143, "pitch": null, "tick": 6720, "vel": 43}, {"drum": "chick", "dur": 120, "glide": false, "micro_ms": 1.4151, "pitch": null, "tick": 8640, "vel": 37}, {"drum": "chick", "dur": 120, "glide": false, "micro_ms": 2.3463, "pitch": null, "tick": 10560, "vel": 47}, {"drum": "chick", "dur": 120, "glide": false, "micro_ms": 2.7519, "pitch": null, "tick": 12480, "vel": 52}, {"drum": "chick", "dur": 120, "glide": false, "micro_ms": -0.2386, "pitch": null, "tick": 14400, "vel": 47}], "keys": [{"drum": null, "dur": 960, "glide": false, "micro_ms": 3.5078, "pitch": 48, "tick": 0, "vel": 79}, {"drum": null, "dur": 720, "glide": false, "micro_ms": 3.7846, "pitch": 52, "tick": 960, "vel": 61}, {"drum": null, "dur": 720, "glide": false, "micro_ms": -3.3381, "pitch": 57, "tick": 960, "vel": 65}, {"drum": null, "dur": 720, "glide": false, "micro_ms": 5.7707, "pitch": 67, "tick": 960, "vel": 67}, {"drum": null, "dur": 720, "glide": false, "micro_ms": -3.6159, "pitch": 72, "tick": 960, "vel": 67}, {"drum": null, "dur": 960, "glide": false, "micro_ms": -6.7166, "pitch": 43, "tick": 1920, "vel": 81}, {"drum": null, "dur": 720, "glide": false, "micro_ms": -2.1731, "pitch": 52, "tick": 2880, "vel": 66}, {"drum": null, "dur": 720, "glide": false, "micro_ms": -1.9448, "pitch": 57, "tick": 2880, "vel": 69}, {"drum": null, "dur": 720, "glide": false, "micro_ms": 4.4615, "pitch": 67, "tick": 2880, "vel": 67}, {"drum": null, "dur": 720, "glide": false, "micro_ms": 3.9743, "pitch": 72, "tick": 2880, "vel": 70}, {"drum": null, "dur": 960, "glide": false, "micro_ms": 3.7937, "pitch": 48, "tick": 3840, "vel": 87}, {"drum": null, "dur": 720, "glide": false, "micro_ms": -0.8756, "pitch": 52, "tick": 4800, "vel": 64}, {"drum": null, "dur": 720, "glide": false, "micro_ms": 1.6254, "pitch": 57, "tick": 4800, "vel": 69}, {"drum": null, "dur": 720, "glide": false, "micro_ms": 4.4788, "pitch": 67, "tick": 4800, "vel": 66}, {"drum": null, "dur": 720, "glide": false, "micro_ms": -0.5063, "pitch": 72, "tick": 4800, "vel": 65}, {"drum": null, "dur": 960, "glide": false, "micro_ms": 4.5526, "pitch": 43, "tick": 5760, "vel": 86}, {"drum": null, "dur": 720, "glide": false, "micro_ms": 2.1764, "pitch": 52, "tick": 6720, "vel": 70}, {"drum": null, "dur": 720, "glide": false, "micro_ms": -0.1496, "pitch": 57, "tick": 6720, "vel": 72}, {"drum": null, "dur": 720, "glide": false, "micro_ms": 2.6714, "pitch": 67, "tick": 6720, "vel": 67}, {"drum": null, "dur": 720, "glide": false, "micro_ms": -8.4226, "pitch": 72, "tick": 6720, "vel": 65}, {"drum": null, "dur": 960, "glide": false, "micro_ms": -0.9859, "pitch": 41, "tick": 7680, "vel": 84}, {"drum": null, "dur": 720, "glide": false, "micro_ms": -0.7136, "pitch": 53, "tick": 8640, "vel": 65}, {"drum": null, "dur": 720, "glide": false, "micro_ms": 1.7697, "pitch": 56, "tick": 8640, "vel": 64}, {"drum": null, "dur": 720, "glide": false, "micro_ms": 6.0052, "pitch": 62, "tick": 8640, "vel": 68}, {"drum": null, "dur": 720, "glide": false, "micro_ms": 5.2012, "pitch": 72, "tick": 8640, "vel": 60}, {"drum": null, "dur": 960, "glide": false, "micro_ms": -1.8971, "pitch": 48, "tick": 9600, "vel": 78}, {"drum": null, "dur": 720, "glide": false, "micro_ms": 6.0452, "pitch": 53, "tick": 10560, "vel": 66}, {"drum": null, "dur": 720, "glide": false, "micro_ms": -4.6648, "pitch": 56, "tick": 10560, "vel": 63}, {"drum": null, "dur": 720, "glide": false, "micro_ms": 0.4034, "pitch": 62, "tick": 10560, "vel": 66}, {"drum": null, "dur": 720, "glide": false, "micro_ms": -1.1599, "pitch": 72, "tick": 10560, "vel": 64}, {"drum": null, "dur": 960, "glide": false, "micro_ms": -0.6091, "pitch": 41, "tick": 11520, "vel": 84}, {"drum": null, "dur": 720, "glide": false, "micro_ms": 3.2486, "pitch": 53, "tick": 12480, "vel": 62}, {"drum": null, "dur": 720, "glide": false, "micro_ms": 3.0324, "pitch": 56, "tick": 12480, "vel": 68}, {"drum": null, "dur": 720, "glide": false, "micro_ms": -2.43, "pitch": 62, "tick": 12480, "vel": 72}, {"drum": null, "dur": 720, "glide": false, "micro_ms": 1.778, "pitch": 72, "tick": 12480, "vel": 68}, {"drum": null, "dur": 960, "glide": false, "micro_ms": 1.8439, "pitch": 48, "tick": 13440, "vel": 81}, {"drum": null, "dur": 720, "glide": false, "micro_ms": 74.6365, "pitch": 53, "tick": 13920, "vel": 63}, {"drum": null, "dur": 720, "glide": false, "micro_ms": 71.3823, "pitch": 56, "tick": 13920, "vel": 68}, {"drum": null, "dur": 720, "glide": false, "micro_ms": 71.5048, "pitch": 62, "tick": 13920, "vel": 64}, {"drum": null, "dur": 720, "glide": false, "micro_ms": 71.9628, "pitch": 72, "tick": 13920, "vel": 63}], "kick": [{"drum": "feather", "dur": 120, "glide": false, "micro_ms": 1.8359, "pitch": null, "tick": 0, "vel": 32}, {"drum": "feather", "dur": 120, "glide": false, "micro_ms": -2.9081, "pitch": null, "tick": 960, "vel": 33}, {"drum": "feather", "dur": 120, "glide": false, "micro_ms": 1.3747, "pitch": null, "tick": 1920, "vel": 27}, {"drum": "feather", "dur": 120, "glide": false, "micro_ms": -2.1342, "pitch": null, "tick": 2880, "vel": 35}, {"drum": "feather", "dur": 120, "glide": false, "micro_ms": 8.1646, "pitch": null, "tick": 3840, "vel": 27}, {"drum": "feather", "dur": 120, "glide": false, "micro_ms": -1.8546, "pitch": null, "tick": 4800, "vel": 37}, {"drum": "feather", "dur": 120, "glide": false, "micro_ms": 0.1118, "pitch": null, "tick": 5760, "vel": 28}, {"drum": "feather", "dur": 120, "glide": false, "micro_ms": -3.1495, "pitch": null, "tick": 6720, "vel": 30}, {"drum": "feather", "dur": 120, "glide": false, "micro_ms": 3.4153, "pitch": null, "tick": 7680, "vel": 28}, {"drum": "feather", "dur": 120, "glide": false, "micro_ms": 1.496, "pitch": null, "tick": 8640, "vel": 31}, {"drum": "feather", "dur": 120, "glide": false, "micro_ms": 1.4815, "pitch": null, "tick": 9600, "vel": 31}, {"drum": "feather", "dur": 120, "glide": false, "micro_ms": 1.7571, "pitch": null, "tick": 10560, "vel": 35}, {"drum": "feather", "dur": 120, "glide": false, "micro_ms": 0.3638, "pitch": null, "tick": 11520, "vel": 31}, {"drum": "feather", "dur": 120, "glide": false, "micro_ms": -2.1121, "pitch": null, "tick": 12480, "vel": 33}, {"drum": "feather", "dur": 120, "glide": false, "micro_ms": -0.0647, "pitch": null, "tick": 13440, "vel": 30}, {"drum": "feather", "dur": 120, "glide": false, "micro_ms": -7.5061, "pitch": null, "tick": 14400, "vel": 30}], "pad": [{"drum": null, "dur": 7680, "glide": false, "micro_ms": 1.5428, "pitch": 69, "tick": 0, "vel": 50}, {"drum": null, "dur": 7680, "glide": false, "micro_ms": 0.9474, "pitch": 79, "tick": 0, "vel": 59}, {"drum": null, "dur": 7680, "glide": false, "micro_ms": -1.0251, "pitch": 84, "tick": 0, "vel": 55}, {"drum": null, "dur": 7680, "glide": false, "micro_ms": -1.0413, "pitch": 68, "tick": 7680, "vel": 58}, {"drum": null, "dur": 7680, "glide": false, "micro_ms": 4.779, "pitch": 74, "tick": 7680, "vel": 54}, {"drum": null, "dur": 7680, "glide": false, "micro_ms": 1.3469, "pitch": 84, "tick": 7680, "vel": 59}], "perc": [], "snare": [{"drum": "brush_swirl", "dur": 120, "glide": false, "micro_ms": -1.0045, "pitch": null, "tick": 0, "vel": 45}, {"drum": "brush_tap", "dur": 120, "glide": false, "micro_ms": 9.1799, "pitch": null, "tick": 960, "vel": 71}, {"drum": "brush_swirl", "dur": 120, "glide": false, "micro_ms": 8.8541, "pitch": null, "tick": 1920, "vel": 41}, {"drum": "brush_tap", "dur": 120, "glide": false, "micro_ms": 9.0285, "pitch": null, "tick": 2880, "vel": 83}, {"drum": "brush_swirl", "dur": 120, "glide": false, "micro_ms": 1.2191, "pitch": null, "tick": 3840, "vel": 37}, {"drum": "brush_tap", "dur": 120, "glide": false, "micro_ms": 10.1556, "pitch": null, "tick": 4800, "vel": 74}, {"drum": "brush_swirl", "dur": 120, "glide": false, "micro_ms": 2.0627, "pitch": null, "tick": 5760, "vel": 34}, {"drum": "brush_tap", "dur": 120, "glide": false, "micro_ms": 10.0447, "pitch": null, "tick": 6720, "vel": 76}, {"drum": "brush_swirl", "dur": 120, "glide": false, "micro_ms": 0.7259, "pitch": null, "tick": 7680, "vel": 42}, {"drum": "brush_tap", "dur": 120, "glide": false, "micro_ms": 5.7875, "pitch": null, "tick": 8640, "vel": 66}, {"drum": "brush_swirl", "dur": 120, "glide": false, "micro_ms": -0.7299, "pitch": null, "tick": 9600, "vel": 40}, {"drum": "brush_tap", "dur": 120, "glide": false, "micro_ms": 13.1129, "pitch": null, "tick": 10560, "vel": 68}, {"drum": "brush_swirl", "dur": 120, "glide": false, "micro_ms": -2.6533, "pitch": null, "tick": 11520, "vel": 31}, {"drum": "brush_tap", "dur": 120, "glide": false, "micro_ms": 9.4137, "pitch": null, "tick": 12480, "vel": 75}, {"drum": "brush_swirl", "dur": 120, "glide": false, "micro_ms": -0.6415, "pitch": null, "tick": 13440, "vel": 40}, {"drum": "brush_tap", "dur": 120, "glide": false, "micro_ms": 7.2254, "pitch": null, "tick": 14400, "vel": 75}], "sub": []}, "pocket": {"clap_ms": 0.0, "snap_ms": 10.81, "swing": 0.6403}, "score": 6.5, "section_b": {"loop": ["VI7", "II7", "V7maj", "III7"], "parts_a": {"bass": [{"drum": null, "dur": 960, "glide": false, "micro_ms": 0.9113, "pitch": 33, "tick": 0, "vel": 79}, {"drum": null, "dur": 960, "glide": false, "micro_ms": -0.7372, "pitch": 28, "tick": 960, "vel": 64}, {"drum": null, "dur": 960, "glide": false, "micro_ms": -0.7404, "pitch": 37, "tick": 1920, "vel": 82}, {"drum": null, "dur": 960, "glide": false, "micro_ms": -2.0481, "pitch": 37, "tick": 2880, "vel": 69}, {"drum": null, "dur": 960, "glide": false, "micro_ms": 0.4343, "pitch": 38, "tick": 3840, "vel": 72}, {"drum": null, "dur": 960, "glide": false, "micro_ms": 3.3123, "pitch": 33, "tick": 4800, "vel": 69}, {"drum": null, "dur": 960, "glide": false, "micro_ms": 7.4706, "pitch": 30, "tick": 5760, "vel": 80}, {"drum": null, "dur": 960, "glide": false, "micro_ms": 1.9293, "pitch": 30, "tick": 6720, "vel": 65}, {"drum": null, "dur": 960, "glide": false, "micro_ms": -3.6501, "pitch": 31, "tick": 7680, "vel": 74}, {"drum": null, "dur": 960, "glide": false, "micro_ms": -3.7766, "pitch": 38, "tick": 8640, "vel": 70}, {"drum": null, "dur": 960, "glide": false, "micro_ms": 0.477, "pitch": 35, "tick": 9600, "vel": 78}, {"drum": null, "dur": 960, "glide": false, "micro_ms": 6.2247, "pitch": 28, "tick": 10560, "vel": 70}, {"drum": null, "dur": 960, "glide": false, "micro_ms": -3.5128, "pitch": 28, "tick": 11520, "vel": 84}, {"drum": null, "dur": 960, "glide": false, "micro_ms": -0.5513, "pitch": 35, "tick": 12480, "vel": 70}, {"drum": null, "dur": 960, "glide": false, "micro_ms": 0.3446, "pitch": 32, "tick": 13440, "vel": 73}, {"drum": null, "dur": 960, "glide": false, "micro_ms": -2.4664, "pitch": 34, "tick": 14400, "vel": 69}], "hat": [{"drum": "chick", "dur": 120, "glide": false, "micro_ms": 2.1805, "pitch": null, "tick": 960, "vel": 52}, {"drum": "chick", "dur": 120, "glide": false, "micro_ms": -6.841, "pitch": null, "tick": 2880, "vel": 51}, {"drum": "chick", "dur": 120, "glide": false, "micro_ms": 0.645, "pitch": null, "tick": 4800, "vel": 52}, {"drum": "chick", "dur": 120, "glide": false, "micro_ms": -2.088, "pitch": null, "tick": 6720, "vel": 47}, {"drum": "chick", "dur": 120, "glide": false, "micro_ms": -6.1216, "pitch": null, "tick": 8640, "vel": 40}, {"drum": "chick", "dur": 120, "glide": false, "micro_ms": 0.4929, "pitch": null, "tick": 10560, "vel": 42}, {"drum": "chick", "dur": 120, "glide": false, "micro_ms": 4.3863, "pitch": null, "tick": 12480, "vel": 41}, {"drum": "chick", "dur": 120, "glide": false, "micro_ms": -2.978, "pitch": null, "tick": 14400, "vel": 44}], "keys": [{"drum": null, "dur": 960, "glide": false, "micro_ms": 2.0777, "pitch": 45, "tick": 0, "vel": 79}, {"drum": null, "dur": 720, "glide": false, "micro_ms": 3.2404, "pitch": 55, "tick": 960, "vel": 63}, {"drum": null, "dur": 720, "glide": false, "micro_ms": 4.4759, "pitch": 64, "tick": 960, "vel": 62}, {"drum": null, "dur": 720, "glide": false, "micro_ms": -1.2547, "pitch": 69, "tick": 960, "vel": 65}, {"drum": null, "dur": 720, "glide": false, "micro_ms": -3.5112, "pitch": 73, "tick": 960, "vel": 65}, {"drum": null, "dur": 960, "glide": false, "micro_ms": -0.8471, "pitch": 40, "tick": 1920, "vel": 82}, {"drum": null, "dur": 720, "glide": false, "micro_ms": -5.9852, "pitch": 55, "tick": 2880, "vel": 67}, {"drum": null, "dur": 720, "glide": false, "micro_ms": -3.4623, "pitch": 64, "tick": 2880, "vel": 62}, {"drum": null, "dur": 720, "glide": false, "micro_ms": -2.5782, "pitch": 69, "tick": 2880, "vel": 64}, {"drum": null, "dur": 720, "glide": false, "micro_ms": 0.1937, "pitch": 73, "tick": 2880, "vel": 66}, {"drum": null, "dur": 960, "glide": false, "micro_ms": 2.3477, "pitch": 50, "tick": 3840, "vel": 82}, {"drum": null, "dur": 720, "glide": false, "micro_ms": -3.4059, "pitch": 54, "tick": 4800, "vel": 64}, {"drum": null, "dur": 720, "glide": false, "micro_ms": 0.5938, "pitch": 60, "tick": 4800, "vel": 63}, {"drum": null, "dur": 720, "glide": false, "micro_ms": 4.2276, "pitch": 69, "tick": 4800, "vel": 63}, {"drum": null, "dur": 720, "glide": false, "micro_ms": -5.1836, "pitch": 74, "tick": 4800, "vel": 67}, {"drum": null, "dur": 960, "glide": false, "micro_ms": -0.7014, "pitch": 45, "tick": 5760, "vel": 89}, {"drum": null, "dur": 720, "glide": false, "micro_ms": -4.5703, "pitch": 54, "tick": 6720, "vel": 63}, {"drum": null, "dur": 720, "glide": false, "micro_ms": 0.8244, "pitch": 60, "tick": 6720, "vel": 66}, {"drum": null, "dur": 720, "glide": false, "micro_ms": -0.6973, "pitch": 69, "tick": 6720, "vel": 63}, {"drum": null, "dur": 720, "glide": false, "micro_ms": -4.4367, "pitch": 74, "tick": 6720, "vel": 65}, {"drum": null, "dur": 960, "glide": false, "micro_ms": 2.2521, "pitch": 43, "tick": 7680, "vel": 77}, {"drum": null, "dur": 720, "glide": false, "micro_ms": 1.9139, "pitch": 55, "tick": 8640, "vel": 67}, {"drum": null, "dur": 720, "glide": false, "micro_ms": -2.6455, "pitch": 59, "tick": 8640, "vel": 66}, {"drum": null, "dur": 720, "glide": false, "micro_ms": 3.2281, "pitch": 65, "tick": 8640, "vel": 69}, {"drum": null, "dur": 720, "glide": false, "micro_ms": -4.9842, "pitch": 74, "tick": 8640, "vel": 62}, {"drum": null, "dur": 960, "glide": false, "micro_ms": -3.2085, "pitch": 50, "tick": 9600, "vel": 86}, {"drum": null, "dur": 720, "glide": false, "micro_ms": -5.605, "pitch": 55, "tick": 10560, "vel": 64}, {"drum": null, "dur": 720, "glide": false, "micro_ms": 1.6116, "pitch": 59, "tick": 10560, "vel": 64}, {"drum": null, "dur": 720, "glide": false, "micro_ms": 5.5965, "pitch": 65, "tick": 10560, "vel": 68}, {"drum": null, "dur": 720, "glide": false, "micro_ms": -2.5198, "pitch": 74, "tick": 10560, "vel": 66}, {"drum": null, "dur": 960, "glide": false, "micro_ms": -2.5637, "pitch": 40, "tick": 11520, "vel": 83}, {"drum": null, "dur": 720, "glide": false, "micro_ms": -0.1841, "pitch": 59, "tick": 12480, "vel": 60}, {"drum": null, "dur": 720, "glide": false, "micro_ms": -0.4976, "pitch": 64, "tick": 12480, "vel": 66}, {"drum": null, "dur": 720, "glide": false, "micro_ms": 1.4435, "pitch": 68, "tick": 12480, "vel": 64}, {"drum": null, "dur": 720, "glide": false, "micro_ms": 1.344, "pitch": 74, "tick": 12480, "vel": 62}, {"drum": null, "dur": 960, "glide": false, "micro_ms": 5.183, "pitch": 47, "tick": 13440, "vel": 82}, {"drum": null, "dur": 720, "glide": false, "micro_ms": 5.5353, "pitch": 59, "tick": 14400, "vel": 72}, {"drum": null, "dur": 720, "glide": false, "micro_ms": 1.7923, "pitch": 64, "tick": 14400, "vel": 67}, {"drum": null, "dur": 720, "glide": false, "micro_ms": 2.3584, "pitch": 68, "tick": 14400, "vel": 66}, {"drum": null, "dur": 720, "glide": false, "micro_ms": -1.3832, "pitch": 74, "tick": 14400, "vel": 67}], "kick": [{"drum": "feather", "dur": 120, "glide": false, "micro_ms": 5.2941, "pitch": null, "tick": 0, "vel": 40}, {"drum": "feather", "dur": 120, "glide": false, "micro_ms": -3.1707, "pitch": null, "tick": 960, "vel": 34}, {"drum": "feather", "dur": 120, "glide": false, "micro_ms": 1.0219, "pitch": null, "tick": 1920, "vel": 28}, {"drum": "feather", "dur": 120, "glide": false, "micro_ms": -0.0632, "pitch": null, "tick": 2880, "vel": 30}, {"drum": "feather", "dur": 120, "glide": false, "micro_ms": 0.8066, "pitch": null, "tick": 3840, "vel": 37}, {"drum": "feather", "dur": 120, "glide": false, "micro_ms": 1.2538, "pitch": null, "tick": 4800, "vel": 31}, {"drum": "feather", "dur": 120, "glide": false, "micro_ms": 4.196, "pitch": null, "tick": 5760, "vel": 39}, {"drum": "feather", "dur": 120, "glide": false, "micro_ms": -0.0857, "pitch": null, "tick": 6720, "vel": 36}, {"drum": "feather", "dur": 120, "glide": false, "micro_ms": 0.3724, "pitch": null, "tick": 7680, "vel": 31}, {"drum": "feather", "dur": 120, "glide": false, "micro_ms": -1.0635, "pitch": null, "tick": 8640, "vel": 29}, {"drum": "feather", "dur": 120, "glide": false, "micro_ms": 0.2154, "pitch": null, "tick": 9600, "vel": 31}, {"drum": "feather", "dur": 120, "glide": false, "micro_ms": 1.3526, "pitch": null, "tick": 10560, "vel": 37}, {"drum": "feather", "dur": 120, "glide": false, "micro_ms": -2.2567, "pitch": null, "tick": 11520, "vel": 30}, {"drum": "feather", "dur": 120, "glide": false, "micro_ms": 1.5319, "pitch": null, "tick": 12480, "vel": 26}, {"drum": "feather", "dur": 120, "glide": false, "micro_ms": 3.5328, "pitch": null, "tick": 13440, "vel": 29}, {"drum": "feather", "dur": 120, "glide": false, "micro_ms": 2.4566, "pitch": null, "tick": 14400, "vel": 39}], "pad": [{"drum": null, "dur": 3840, "glide": false, "micro_ms": 0.4874, "pitch": 76, "tick": 0, "vel": 54}, {"drum": null, "dur": 3840, "glide": false, "micro_ms": 2.7957, "pitch": 81, "tick": 0, "vel": 55}, {"drum": null, "dur": 3840, "glide": false, "micro_ms": -1.6093, "pitch": 85, "tick": 0, "vel": 53}, {"drum": null, "dur": 3840, "glide": false, "micro_ms": -6.3439, "pitch": 60, "tick": 3840, "vel": 52}, {"drum": null, "dur": 3840, "glide": false, "micro_ms": 2.7427, "pitch": 69, "tick": 3840, "vel": 55}, {"drum": null, "dur": 3840, "glide": false, "micro_ms": 3.7854, "pitch": 74, "tick": 3840, "vel": 58}, {"drum": null, "dur": 3840, "glide": false, "micro_ms": -3.5652, "pitch": 59, "tick": 7680, "vel": 51}, {"drum": null, "dur": 3840, "glide": false, "micro_ms": 1.9874, "pitch": 65, "tick": 7680, "vel": 55}, {"drum": null, "dur": 3840, "glide": false, "micro_ms": -2.8355, "pitch": 74, "tick": 7680, "vel": 54}, {"drum": null, "dur": 3840, "glide": false, "micro_ms": -3.6389, "pitch": 64, "tick": 11520, "vel": 53}, {"drum": null, "dur": 3840, "glide": false, "micro_ms": 6.1733, "pitch": 68, "tick": 11520, "vel": 57}, {"drum": null, "dur": 3840, "glide": false, "micro_ms": -0.1299, "pitch": 74, "tick": 11520, "vel": 54}], "perc": [], "snare": [{"drum": "brush_swirl", "dur": 120, "glide": false, "micro_ms": -0.354, "pitch": null, "tick": 0, "vel": 39}, {"drum": "brush_tap", "dur": 120, "glide": false, "micro_ms": 13.5061, "pitch": null, "tick": 960, "vel": 59}, {"drum": "brush_swirl", "dur": 120, "glide": false, "micro_ms": 2.1253, "pitch": null, "tick": 1920, "vel": 38}, {"drum": "brush_tap", "dur": 120, "glide": false, "micro_ms": 12.5126, "pitch": null, "tick": 2880, "vel": 58}, {"drum": "brush_swirl", "dur": 120, "glide": false, "micro_ms": 0.6451, "pitch": null, "tick": 3840, "vel": 41}, {"drum": "brush_tap", "dur": 120, "glide": false, "micro_ms": 3.1006, "pitch": null, "tick": 4800, "vel": 62}, {"drum": "brush_swirl", "dur": 120, "glide": false, "micro_ms": 5.4986, "pitch": null, "tick": 5760, "vel": 35}, {"drum": "brush_tap", "dur": 120, "glide": false, "micro_ms": 5.0443, "pitch": null, "tick": 6720, "vel": 66}, {"drum": "brush_swirl", "dur": 120, "glide": false, "micro_ms": -0.8927, "pitch": null, "tick": 7680, "vel": 43}, {"drum": "brush_tap", "dur": 120, "glide": false, "micro_ms": 5.3526, "pitch": null, "tick": 8640, "vel": 64}, {"drum": "brush_swirl", "dur": 120, "glide": false, "micro_ms": -4.2286, "pitch": null, "tick": 9600, "vel": 35}, {"drum": "brush_tap", "dur": 120, "glide": false, "micro_ms": 11.2191, "pitch": null, "tick": 10560, "vel": 57}, {"drum": "brush_swirl", "dur": 120, "glide": false, "micro_ms": -3.486, "pitch": null, "tick": 11520, "vel": 47}, {"drum": "brush_tap", "dur": 120, "glide": false, "micro_ms": 13.5719, "pitch": null, "tick": 12480, "vel": 58}, {"drum": "brush_swirl", "dur": 120, "glide": false, "micro_ms": -2.9329, "pitch": null, "tick": 13440, "vel": 35}, {"drum": "brush_tap", "dur": 120, "glide": false, "micro_ms": 12.5253, "pitch": null, "tick": 14400, "vel": 60}], "sub": []}, "parts_b": {"bass": [{"drum": null, "dur": 960, "glide": false, "micro_ms": 0.9113, "pitch": 33, "tick": 0, "vel": 79}, {"drum": null, "dur": 960, "glide": false, "micro_ms": -0.7372, "pitch": 28, "tick": 960, "vel": 64}, {"drum": null, "dur": 960, "glide": false, "micro_ms": -0.7404, "pitch": 37, "tick": 1920, "vel": 82}, {"drum": null, "dur": 960, "glide": false, "micro_ms": -2.0481, "pitch": 37, "tick": 2880, "vel": 69}, {"drum": null, "dur": 960, "glide": false, "micro_ms": 0.4343, "pitch": 38, "tick": 3840, "vel": 72}, {"drum": null, "dur": 960, "glide": false, "micro_ms": 3.3123, "pitch": 33, "tick": 4800, "vel": 69}, {"drum": null, "dur": 960, "glide": false, "micro_ms": 7.4706, "pitch": 30, "tick": 5760, "vel": 80}, {"drum": null, "dur": 960, "glide": false, "micro_ms": 1.9293, "pitch": 30, "tick": 6720, "vel": 65}, {"drum": null, "dur": 960, "glide": false, "micro_ms": -3.6501, "pitch": 31, "tick": 7680, "vel": 74}, {"drum": null, "dur": 960, "glide": false, "micro_ms": -3.7766, "pitch": 38, "tick": 8640, "vel": 70}, {"drum": null, "dur": 960, "glide": false, "micro_ms": 0.477, "pitch": 35, "tick": 9600, "vel": 78}, {"drum": null, "dur": 960, "glide": false, "micro_ms": 6.2247, "pitch": 28, "tick": 10560, "vel": 70}, {"drum": null, "dur": 960, "glide": false, "micro_ms": -3.5128, "pitch": 28, "tick": 11520, "vel": 84}, {"drum": null, "dur": 960, "glide": false, "micro_ms": -0.5513, "pitch": 35, "tick": 12480, "vel": 70}, {"drum": null, "dur": 960, "glide": false, "micro_ms": 0.3446, "pitch": 32, "tick": 13440, "vel": 73}, {"drum": null, "dur": 960, "glide": false, "micro_ms": -2.4664, "pitch": 34, "tick": 14400, "vel": 69}], "hat": [{"drum": "chick", "dur": 120, "glide": false, "micro_ms": 2.1805, "pitch": null, "tick": 960, "vel": 55}, {"drum": "chick", "dur": 120, "glide": false, "micro_ms": -6.841, "pitch": null, "tick": 2880, "vel": 48}, {"drum": "chick", "dur": 120, "glide": false, "micro_ms": 0.645, "pitch": null, "tick": 4800, "vel": 43}, {"drum": "chick", "dur": 120, "glide": false, "micro_ms": -2.088, "pitch": null, "tick": 6720, "vel": 47}, {"drum": "chick", "dur": 120, "glide": false, "micro_ms": -6.1216, "pitch": null, "tick": 8640, "vel": 38}, {"drum": "chick", "dur": 120, "glide": false, "micro_ms": 0.4929, "pitch": null, "tick": 10560, "vel": 46}, {"drum": "chick", "dur": 120, "glide": false, "micro_ms": 4.3863, "pitch": null, "tick": 12480, "vel": 55}, {"drum": "chick", "dur": 120, "glide": false, "micro_ms": -2.978, "pitch": null, "tick": 14400, "vel": 45}], "keys": [{"drum": null, "dur": 960, "glide": false, "micro_ms": 2.0777, "pitch": 45, "tick": 0, "vel": 79}, {"drum": null, "dur": 720, "glide": false, "micro_ms": 3.2404, "pitch": 55, "tick": 960, "vel": 63}, {"drum": null, "dur": 720, "glide": false, "micro_ms": 4.4759, "pitch": 64, "tick": 960, "vel": 62}, {"drum": null, "dur": 720, "glide": false, "micro_ms": -1.2547, "pitch": 69, "tick": 960, "vel": 65}, {"drum": null, "dur": 720, "glide": false, "micro_ms": -3.5112, "pitch": 73, "tick": 960, "vel": 65}, {"drum": null, "dur": 960, "glide": false, "micro_ms": -0.8471, "pitch": 40, "tick": 1920, "vel": 82}, {"drum": null, "dur": 720, "glide": false, "micro_ms": -5.9852, "pitch": 55, "tick": 2880, "vel": 67}, {"drum": null, "dur": 720, "glide": false, "micro_ms": -3.4623, "pitch": 64, "tick": 2880, "vel": 62}, {"drum": null, "dur": 720, "glide": false, "micro_ms": -2.5782, "pitch": 69, "tick": 2880, "vel": 64}, {"drum": null, "dur": 720, "glide": false, "micro_ms": 0.1937, "pitch": 73, "tick": 2880, "vel": 66}, {"drum": null, "dur": 960, "glide": false, "micro_ms": 2.3477, "pitch": 50, "tick": 3840, "vel": 82}, {"drum": null, "dur": 720, "glide": false, "micro_ms": -3.4059, "pitch": 54, "tick": 4800, "vel": 64}, {"drum": null, "dur": 720, "glide": false, "micro_ms": 0.5938, "pitch": 60, "tick": 4800, "vel": 63}, {"drum": null, "dur": 720, "glide": false, "micro_ms": 4.2276, "pitch": 69, "tick": 4800, "vel": 63}, {"drum": null, "dur": 720, "glide": false, "micro_ms": -5.1836, "pitch": 74, "tick": 4800, "vel": 67}, {"drum": null, "dur": 960, "glide": false, "micro_ms": -0.7014, "pitch": 45, "tick": 5760, "vel": 89}, {"drum": null, "dur": 720, "glide": false, "micro_ms": -4.5703, "pitch": 54, "tick": 6720, "vel": 63}, {"drum": null, "dur": 720, "glide": false, "micro_ms": 0.8244, "pitch": 60, "tick": 6720, "vel": 66}, {"drum": null, "dur": 720, "glide": false, "micro_ms": -0.6973, "pitch": 69, "tick": 6720, "vel": 63}, {"drum": null, "dur": 720, "glide": false, "micro_ms": -4.4367, "pitch": 74, "tick": 6720, "vel": 65}, {"drum": null, "dur": 960, "glide": false, "micro_ms": 2.2521, "pitch": 43, "tick": 7680, "vel": 77}, {"drum": null, "dur": 720, "glide": false, "micro_ms": 1.9139, "pitch": 55, "tick": 8640, "vel": 67}, {"drum": null, "dur": 720, "glide": false, "micro_ms": -2.6455, "pitch": 59, "tick": 8640, "vel": 66}, {"drum": null, "dur": 720, "glide": false, "micro_ms": 3.2281, "pitch": 65, "tick": 8640, "vel": 69}, {"drum": null, "dur": 720, "glide": false, "micro_ms": -4.9842, "pitch": 74, "tick": 8640, "vel": 62}, {"drum": null, "dur": 960, "glide": false, "micro_ms": -3.2085, "pitch": 50, "tick": 9600, "vel": 86}, {"drum": null, "dur": 720, "glide": false, "micro_ms": -5.605, "pitch": 55, "tick": 10560, "vel": 64}, {"drum": null, "dur": 720, "glide": false, "micro_ms": 1.6116, "pitch": 59, "tick": 10560, "vel": 64}, {"drum": null, "dur": 720, "glide": false, "micro_ms": 5.5965, "pitch": 65, "tick": 10560, "vel": 68}, {"drum": null, "dur": 720, "glide": false, "micro_ms": -2.5198, "pitch": 74, "tick": 10560, "vel": 66}, {"drum": null, "dur": 960, "glide": false, "micro_ms": -2.5637, "pitch": 40, "tick": 11520, "vel": 83}, {"drum": null, "dur": 720, "glide": false, "micro_ms": -0.1841, "pitch": 59, "tick": 12480, "vel": 60}, {"drum": null, "dur": 720, "glide": false, "micro_ms": -0.4976, "pitch": 64, "tick": 12480, "vel": 66}, {"drum": null, "dur": 720, "glide": false, "micro_ms": 1.4435, "pitch": 68, "tick": 12480, "vel": 64}, {"drum": null, "dur": 720, "glide": false, "micro_ms": 1.344, "pitch": 74, "tick": 12480, "vel": 62}, {"drum": null, "dur": 960, "glide": false, "micro_ms": 5.183, "pitch": 47, "tick": 13440, "vel": 82}, {"drum": null, "dur": 720, "glide": false, "micro_ms": 5.5353, "pitch": 59, "tick": 14400, "vel": 72}, {"drum": null, "dur": 720, "glide": false, "micro_ms": 1.7923, "pitch": 64, "tick": 14400, "vel": 67}, {"drum": null, "dur": 720, "glide": false, "micro_ms": 2.3584, "pitch": 68, "tick": 14400, "vel": 66}, {"drum": null, "dur": 720, "glide": false, "micro_ms": -1.3832, "pitch": 74, "tick": 14400, "vel": 67}], "kick": [{"drum": "feather", "dur": 120, "glide": false, "micro_ms": 5.2941, "pitch": null, "tick": 0, "vel": 31}, {"drum": "feather", "dur": 120, "glide": false, "micro_ms": -3.1707, "pitch": null, "tick": 960, "vel": 34}, {"drum": "feather", "dur": 120, "glide": false, "micro_ms": 1.0219, "pitch": null, "tick": 1920, "vel": 35}, {"drum": "feather", "dur": 120, "glide": false, "micro_ms": -0.0632, "pitch": null, "tick": 2880, "vel": 37}, {"drum": "feather", "dur": 120, "glide": false, "micro_ms": 0.8066, "pitch": null, "tick": 3840, "vel": 31}, {"drum": "feather", "dur": 120, "glide": false, "micro_ms": 1.2538, "pitch": null, "tick": 4800, "vel": 30}, {"drum": "feather", "dur": 120, "glide": false, "micro_ms": 4.196, "pitch": null, "tick": 5760, "vel": 35}, {"drum": "feather", "dur": 120, "glide": false, "micro_ms": -0.0857, "pitch": null, "tick": 6720, "vel": 33}, {"drum": "feather", "dur": 120, "glide": false, "micro_ms": 0.3724, "pitch": null, "tick": 7680, "vel": 36}, {"drum": "feather", "dur": 120, "glide": false, "micro_ms": -1.0635, "pitch": null, "tick": 8640, "vel": 30}, {"drum": "feather", "dur": 120, "glide": false, "micro_ms": 0.2154, "pitch": null, "tick": 9600, "vel": 33}, {"drum": "feather", "dur": 120, "glide": false, "micro_ms": 1.3526, "pitch": null, "tick": 10560, "vel": 31}, {"drum": "feather", "dur": 120, "glide": false, "micro_ms": -2.2567, "pitch": null, "tick": 11520, "vel": 30}, {"drum": "feather", "dur": 120, "glide": false, "micro_ms": 1.5319, "pitch": null, "tick": 12480, "vel": 27}, {"drum": "feather", "dur": 120, "glide": false, "micro_ms": 3.5328, "pitch": null, "tick": 13440, "vel": 30}, {"drum": "feather", "dur": 120, "glide": false, "micro_ms": 2.4566, "pitch": null, "tick": 14400, "vel": 38}], "pad": [{"drum": null, "dur": 3840, "glide": false, "micro_ms": 0.4874, "pitch": 76, "tick": 0, "vel": 54}, {"drum": null, "dur": 3840, "glide": false, "micro_ms": 2.7957, "pitch": 81, "tick": 0, "vel": 55}, {"drum": null, "dur": 3840, "glide": false, "micro_ms": -1.6093, "pitch": 85, "tick": 0, "vel": 53}, {"drum": null, "dur": 3840, "glide": false, "micro_ms": -6.3439, "pitch": 60, "tick": 3840, "vel": 52}, {"drum": null, "dur": 3840, "glide": false, "micro_ms": 2.7427, "pitch": 69, "tick": 3840, "vel": 55}, {"drum": null, "dur": 3840, "glide": false, "micro_ms": 3.7854, "pitch": 74, "tick": 3840, "vel": 58}, {"drum": null, "dur": 3840, "glide": false, "micro_ms": -3.5652, "pitch": 59, "tick": 7680, "vel": 51}, {"drum": null, "dur": 3840, "glide": false, "micro_ms": 1.9874, "pitch": 65, "tick": 7680, "vel": 55}, {"drum": null, "dur": 3840, "glide": false, "micro_ms": -2.8355, "pitch": 74, "tick": 7680, "vel": 54}, {"drum": null, "dur": 3840, "glide": false, "micro_ms": -3.6389, "pitch": 64, "tick": 11520, "vel": 53}, {"drum": null, "dur": 3840, "glide": false, "micro_ms": 6.1733, "pitch": 68, "tick": 11520, "vel": 57}, {"drum": null, "dur": 3840, "glide": false, "micro_ms": -0.1299, "pitch": 74, "tick": 11520, "vel": 54}], "perc": [], "snare": [{"drum": "brush_swirl", "dur": 120, "glide": false, "micro_ms": -0.354, "pitch": null, "tick": 0, "vel": 35}, {"drum": "brush_tap", "dur": 120, "glide": false, "micro_ms": 13.5061, "pitch": null, "tick": 960, "vel": 62}, {"drum": "brush_swirl", "dur": 120, "glide": false, "micro_ms": 2.1253, "pitch": null, "tick": 1920, "vel": 36}, {"drum": "brush_tap", "dur": 120, "glide": false, "micro_ms": 12.5126, "pitch": null, "tick": 2880, "vel": 71}, {"drum": "brush_swirl", "dur": 120, "glide": false, "micro_ms": 0.6451, "pitch": null, "tick": 3840, "vel": 35}, {"drum": "brush_tap", "dur": 120, "glide": false, "micro_ms": 3.1006, "pitch": null, "tick": 4800, "vel": 66}, {"drum": "brush_swirl", "dur": 120, "glide": false, "micro_ms": 5.4986, "pitch": null, "tick": 5760, "vel": 44}, {"drum": "brush_tap", "dur": 120, "glide": false, "micro_ms": 5.0443, "pitch": null, "tick": 6720, "vel": 64}, {"drum": "brush_swirl", "dur": 120, "glide": false, "micro_ms": -0.8927, "pitch": null, "tick": 7680, "vel": 43}, {"drum": "brush_tap", "dur": 120, "glide": false, "micro_ms": 5.3526, "pitch": null, "tick": 8640, "vel": 74}, {"drum": "brush_swirl", "dur": 120, "glide": false, "micro_ms": -4.2286, "pitch": null, "tick": 9600, "vel": 39}, {"drum": "brush_tap", "dur": 120, "glide": false, "micro_ms": 11.2191, "pitch": null, "tick": 10560, "vel": 73}, {"drum": "brush_swirl", "dur": 120, "glide": false, "micro_ms": -3.486, "pitch": null, "tick": 11520, "vel": 46}, {"drum": "brush_tap", "dur": 120, "glide": false, "micro_ms": 13.5719, "pitch": null, "tick": 12480, "vel": 66}, {"drum": "brush_swirl", "dur": 120, "glide": false, "micro_ms": -2.9329, "pitch": null, "tick": 13440, "vel": 31}, {"drum": "brush_tap", "dur": 120, "glide": false, "micro_ms": 12.5253, "pitch": null, "tick": 14400, "vel": 79}], "sub": []}, "segments": [{"dur": 8, "label": "VI7 (V/ii)", "start": 0, "symbol": "A7"}, {"dur": 8, "label": "II7 (V/V)", "start": 8, "symbol": "D7"}, {"dur": 8, "label": "V7", "start": 16, "symbol": "G7"}, {"dur": 8, "label": "III7 (V/vi)", "start": 24, "symbol": "E7"}], "voicings": [["G3", "E4", "A4", "C#5"], ["F#3", "C4", "A4", "D5"], ["G3", "B3", "F4", "D5"], ["B3", "E4", "G#4", "D5"]]}, "seed": 27, "segments": [{"dur": 16, "label": "I6", "start": 0, "symbol": "C6"}, {"dur": 16, "label": "iv6 (borrowed)", "start": 16, "symbol": "Fm6"}], "timeline": [{"cycles": 1, "kind": "intro", "muted": ["bass", "hat", "kick", "pad", "perc", "snare", "sub"], "transpose": 0}, {"cycles": 2, "kind": "a", "muted": ["pad"], "transpose": 0}, {"cycles": 3, "kind": "a", "muted": [], "transpose": 0}, {"cycles": 2, "kind": "b", "muted": [], "transpose": 0}, {"cycles": 1, "kind": "drop", "muted": ["hat", "kick", "perc", "snare"], "transpose": 0}, {"cycles": 2, "kind": "a", "muted": [], "transpose": 0}, {"cycles": 2, "kind": "a", "muted": [], "transpose": 0}, {"cycles": 3, "kind": "a", "muted": [], "transpose": 0}, {"cycles": 3, "kind": "b", "muted": [], "transpose": 0}, {"cycles": 3, "kind": "a", "muted": [], "transpose": 0}, {"cycles": 1, "kind": "a", "muted": [], "transpose": 0}, {"cycles": 1, "kind": "outro", "muted": ["bass", "hat", "kick", "pad", "perc", "snare", "sub"], "transpose": 0}], "voicings": [["E3", "A3", "G4", "C5"], ["F3", "Ab3", "D4", "C5"]]}