{"bars": 4, "bpm": 66, "card": {"allow_chromatic_mediant": true, "allow_tritone_sub": true, "bpm_range": [60, 110], "centers": ["Cm", "Fm", "Gm", "Am", "Ebm"], "clap_drag_ms": [0.0, 0.0], "elaboration_density": 0.6, "function_pool": ["i7", "i9", "iv7", "iv9", "v7", "V7", "V7b9", "V7b13", "bVImaj7", "bIII", "bVII7", "ii7", "iim7b5", "bII"], "ghost_kicks": false, "hat_vels": [40, 70], "keys_reattack": "sustain", "kick_per_bar": [1, 2], "loop_len_weights": [[2, 0.2], [3, 0.3], [4, 0.5]], "major_centers": ["C", "F", "G", "Db", "Ab", "Eb"], "major_function_pool": ["Imaj7", "ii9", "ii7maj", "iii7", "IVmaj7", "V7maj", "vi7"], "max_changes_per_bar": 4, "name": "molina", "p_bass_approach": 0.6, "p_bass_glide": 0.0, "p_bass_stab": 0.1, "p_drumless": 1.0, "p_hat_roll": 0.05, "p_keys_anticipation": 0.2, "p_kicker": 0.6, "p_major_center": 0.5, "p_perc_bed": 0.1, "p_phrygian_vamp": 0.05, "p_tonic_avoid": 0.05, "p_transpose_event": 0.1, "p_turnaround": 0.5, "provenance": [["function_pool", "cited"], ["elaboration_density", "cited"], ["allow_tritone_sub", "cited"], ["bpm_range", "inferred"], ["templates", "cited"], ["p_kicker", "gate-only-phase-1"], ["p_phrygian_vamp", "reserved-phase-2"], ["swing_band", "inferred"], ["timing_sigma_ms", "inferred"]], "register_hi": 79, "register_lo": 43, "rootless": true, "snap_rush_ms": [0.0, 0.0], "swing_band": [0.55, 0.66], "target_len_s": [90, 150], "templates": ["close4", "close5", "drop2", "quartal", "us_triad", "sus43", "add9"], "texture": [["lpf_hz", 18000.0], ["crackle_db", -60.0], ["wow_depth", 0.0], ["pump_db", 1.0], ["reverb_s", 1.8], ["tape_drive", 0.15]], "timing_sigma_ms": 5.0, "transpose_semitones": 3, "vel_jitter": 0.1, "voicing_density": 0.9}, "engine": "0.1.1", "index": 0, "key": "Ab", "loop": ["Imaj7", "V7maj", "iii7"], "parts_a": {"bass": [{"drum": null, "dur": 960, "glide": false, "micro_ms": -1.9578, "pitch": 44, "tick": 0, "vel": 67}, {"drum": null, "dur": 240, "glide": false, "micro_ms": 6.6295, "pitch": 38, "tick": 4560, "vel": 67}, {"drum": null, "dur": 960, "glide": false, "micro_ms": 3.2414, "pitch": 39, "tick": 4800, "vel": 80}, {"drum": null, "dur": 240, "glide": false, "micro_ms": -0.1078, "pitch": 47, "tick": 9360, "vel": 73}, {"drum": null, "dur": 960, "glide": false, "micro_ms": -8.055, "pitch": 48, "tick": 9600, "vel": 98}, {"drum": null, "dur": 960, "glide": false, "micro_ms": 2.4963, "pitch": 39, "tick": 14400, "vel": 70}, {"drum": null, "dur": 240, "glide": false, "micro_ms": -4.4762, "pitch": 43, "tick": 15120, "vel": 62}], "hat": [], "keys": [{"drum": null, "dur": 4800, "glide": false, "micro_ms": -2.8797, "pitch": 51, "tick": 0, "vel": 79}, {"drum": null, "dur": 4800, "glide": false, "micro_ms": 9.1434, "pitch": 55, "tick": 0, "vel": 69}, {"drum": null, "dur": 4800, "glide": false, "micro_ms": 7.5156, "pitch": 58, "tick": 0, "vel": 69}, {"drum": null, "dur": 4800, "glide": false, "micro_ms": 1.0481, "pitch": 60, "tick": 0, "vel": 83}, {"drum": null, "dur": 4800, "glide": false, "micro_ms": -6.46, "pitch": 51, "tick": 4800, "vel": 70}, {"drum": null, "dur": 4800, "glide": false, "micro_ms": -1.3583, "pitch": 56, "tick": 4800, "vel": 81}, {"drum": null, "dur": 4800, "glide": false, "micro_ms": -10.2561, "pitch": 58, "tick": 4800, "vel": 99}, {"drum": null, "dur": 4800, "glide": false, "micro_ms": -0.3101, "pitch": 61, "tick": 4800, "vel": 90}, {"drum": null, "dur": 4320, "glide": false, "micro_ms": -3.3009, "pitch": 51, "tick": 9600, "vel": 77}, {"drum": null, "dur": 4320, "glide": false, "micro_ms": -0.5141, "pitch": 55, "tick": 9600, "vel": 76}, {"drum": null, "dur": 4320, "glide": false, "micro_ms": -5.0185, "pitch": 58, "tick": 9600, "vel": 77}, {"drum": null, "dur": 4320, "glide": false, "micro_ms": 5.9328, "pitch": 62, "tick": 9600, "vel": 73}, {"drum": null, "dur": 1440, "glide": false, "micro_ms": 60.5707, "pitch": 51, "tick": 13920, "vel": 77}, {"drum": null, "dur": 1440, "glide": false, "micro_ms": 66.7243, "pitch": 56, "tick": 13920, "vel": 64}, {"drum": null, "dur": 1440, "glide": false, "micro_ms": 65.1317, "pitch": 58, "tick": 13920, "vel": 69}, {"drum": null, "dur": 1440, "glide": false, "micro_ms": 70.1189, "pitch": 61, "tick": 13920, "vel": 80}], "kick": [], "perc": [], "snare": [], "sub": [{"drum": null, "dur": 4800, "glide": false, "micro_ms": -1.2611, "pitch": 32, "tick": 0, "vel": 80}, {"drum": null, "dur": 4800, "glide": false, "micro_ms": 6.7912, "pitch": 27, "tick": 4800, "vel": 97}, {"drum": null, "dur": 4800, "glide": false, "micro_ms": 10.3586, "pitch": 36, "tick": 9600, "vel": 110}, {"drum": null, "dur": 960, "glide": false, "micro_ms": 2.4837, "pitch": 27, "tick": 14400, "vel": 93}]}, "parts_b": {"bass": [{"drum": null, "dur": 960, "glide": false, "micro_ms": -1.9578, "pitch": 44, "tick": 0, "vel": 67}, {"drum": null, "dur": 240, "glide": false, "micro_ms": 6.6295, "pitch": 38, "tick": 4560, "vel": 67}, {"drum": null, "dur": 960, "glide": false, "micro_ms": 3.2414, "pitch": 39, "tick": 4800, "vel": 80}, {"drum": null, "dur": 240, "glide": false, "micro_ms": -0.1078, "pitch": 47, "tick": 9360, "vel": 73}, {"drum": null, "dur": 960, "glide": false, "micro_ms": -8.055, "pitch": 48, "tick": 9600, "vel": 98}, {"drum": null, "dur": 960, "glide": false, "micro_ms": 2.4963, "pitch": 39, "tick": 14400, "vel": 70}, {"drum": null, "dur": 240, "glide": false, "micro_ms": -4.4762, "pitch": 43, "tick": 15120, "vel": 62}], "hat": [], "keys": [{"drum": null, "dur": 4800, "glide": false, "micro_ms": -2.8797, "pitch": 51, "tick": 0, "vel": 79}, {"drum": null, "dur": 4800, "glide": false, "micro_ms": 9.1434, "pitch": 55, "tick": 0, "vel": 69}, {"drum": null, "dur": 4800, "glide": false, "micro_ms": 7.5156, "pitch": 58, "tick": 0, "vel": 69}, {"drum": null, "dur": 4800, "glide": false, "micro_ms": 1.0481, "pitch": 60, "tick": 0, "vel": 83}, {"drum": null, "dur": 4800, "glide": false, "micro_ms": -6.46, "pitch": 51, "tick": 4800, "vel": 70}, {"drum": null, "dur": 4800, "glide": false, "micro_ms": -1.3583, "pitch": 56, "tick": 4800, "vel": 81}, {"drum": null, "dur": 4800, "glide": false, "micro_ms": -10.2561, "pitch": 58, "tick": 4800, "vel": 99}, {"drum": null, "dur": 4800, "glide": false, "micro_ms": -0.3101, "pitch": 61, "tick": 4800, "vel": 90}, {"drum": null, "dur": 4320, "glide": false, "micro_ms": -3.3009, "pitch": 51, "tick": 9600, "vel": 77}, {"drum": null, "dur": 4320, "glide": false, "micro_ms": -0.5141, "pitch": 55, "tick": 9600, "vel": 76}, {"drum": null, "dur": 4320, "glide": false, "micro_ms": -5.0185, "pitch": 58, "tick": 9600, "vel": 77}, {"drum": null, "dur": 4320, "glide": false, "micro_ms": 5.9328, "pitch": 62, "tick": 9600, "vel": 73}, {"drum": null, "dur": 1440, "glide": false, "micro_ms": 60.5707, "pitch": 51, "tick": 13920, "vel": 77}, {"drum": null, "dur": 1440, "glide": false, "micro_ms": 66.7243, "pitch": 56, "tick": 13920, "vel": 64}, {"drum": null, "dur": 1440, "glide": false, "micro_ms": 65.1317, "pitch": 58, "tick": 13920, "vel": 69}, {"drum": null, "dur": 1440, "glide": false, "micro_ms": 70.1189, "pitch": 61, "tick": 13920, "vel": 80}], "kick": [], "perc": [], "snare": [], "sub": [{"drum": null, "dur": 4800, "glide": false, "micro_ms": -1.2611, "pitch": 32, "tick": 0, "vel": 80}, {"drum": null, "dur": 4800, "glide": false, "micro_ms": 6.7912, "pitch": 27, "tick": 4800, "vel": 97}, {"drum": null, "dur": 4800, "glide": false, "micro_ms": 10.3586, "pitch": 36, "tick": 9600, "vel": 110}, {"drum": null, "dur": 960, "glide": false, "micro_ms": 2.4837, "pitch": 27, "tick": 14400, "vel": 93}]}, "pocket": {"clap_ms": 0.0, "snap_ms": 0.0, "swing": 0.5744}, "score": 2.3, "seed": 101, "segments": [{"dur": 10, "label": "Imaj7", "start": 0, "symbol": "Abmaj7"}, {"dur": 10, "label": "V7", "start": 10, "symbol": "Eb7"}, {"dur": 10, "label": "iii7", "start": 20, "symbol": "Cm7"}, {"dur": 2, "label": "V7/Imaj7", "start": 30, "symbol": "Eb7"}], "timeline": [{"cycles": 1, "kind": "intro", "muted": ["bass", "hat", "kick", "perc", "snare", "sub"], "transpose": 0}, {"cycles": 2, "kind": "a", "muted": [], "transpose": 0}, {"cycles": 3, "kind": "b", "muted": [], "transpose": 0}, {"cycles": 2, "kind": "a", "muted": [], "transpose": 0}, {"cycles": 1, "kind": "b", "muted": [], "transpose": 0}, {"cycles": 1, "kind": "outro", "muted": ["bass", "hat", "kick", "perc", "snare", "sub"], "transpose": 0}], "voicings": [["Eb3", "G3", "Bb3", "C4"], ["Eb3", "Ab3", "Bb3", "Db4"], ["Eb3", "G3", "Bb3", "D4"], ["Eb3", "Ab3", "Bb3", "Db4"]]}